<svg data-v-fde0c5aa="" xmlns="http://www.w3.org/2000/svg" viewBox="0 0 300 300" class="iconLeftSlogan"><!----><defs data-v-fde0c5aa=""><!----></defs><rect data-v-fde0c5aa="" fill="#D46B69" x="0" y="0" width="300px" height="300px" class="logo-background-square"></rect><defs data-v-fde0c5aa=""><!----></defs><g data-v-fde0c5aa="" id="ffa74227-b015-4db5-a10b-efa7a30f2227" fill="#EDC9B2" transform="matrix(1.8696843385696411,0,0,1.8696843385696411,95.03773741528538,116.98418457209608)"><path d="M4.53 11.73L4.53 11.73L3.75 12.24L3.58 12.15L3.58 12.15Q3.51 11.05 2.67 11.05L2.67 11.05L2.67 11.05Q2.18 11.05 1.85 11.38L1.85 11.38L1.85 11.38Q1.52 11.70 1.52 12.19L1.52 12.19L1.52 12.19Q1.52 12.59 1.89 12.89L1.89 12.89L1.89 12.89Q2.26 13.19 3.07 13.54L3.07 13.54L3.07 13.54Q3.89 13.89 4.28 14.28L4.28 14.28L4.28 14.28Q4.68 14.67 4.68 15.16L4.68 15.16L4.68 15.16Q4.68 15.67 4.44 16.09L4.44 16.09L4.44 16.09Q4.20 16.52 3.82 16.78L3.82 16.78L3.82 16.78Q3.44 17.04 2.98 17.19L2.98 17.19L2.98 17.19Q2.52 17.33 2.04 17.33L2.04 17.33L2.04 17.33Q0.60 17.33-0.01 16.17L-0.01 16.17L0.67 15.17L0.87 15.18L0.87 15.18Q0.91 15.85 1.36 16.32L1.36 16.32L1.36 16.32Q1.81 16.80 2.46 16.80L2.46 16.80L2.46 16.80Q2.91 16.80 3.28 16.47L3.28 16.47L3.28 16.47Q3.66 16.15 3.66 15.73L3.66 15.73L3.66 15.73Q3.66 15.48 3.54 15.26L3.54 15.26L3.54 15.26Q3.42 15.05 3.20 14.88L3.20 14.88L3.20 14.88Q2.98 14.71 2.77 14.60L2.77 14.60L2.77 14.60Q2.56 14.49 2.27 14.36L2.27 14.36L2.27 14.36Q1.90 14.21 1.62 14.05L1.62 14.05L1.62 14.05Q1.33 13.90 1.07 13.68L1.07 13.68L1.07 13.68Q0.81 13.46 0.66 13.18L0.66 13.18L0.66 13.18Q0.52 12.89 0.52 12.56L0.52 12.56L0.52 12.56Q0.52 11.96 0.89 11.49L0.89 11.49L0.89 11.49Q1.25 11.03 1.80 10.80L1.80 10.80L1.80 10.80Q2.34 10.57 2.94 10.57L2.94 10.57L2.94 10.57Q3.56 10.57 4.03 10.86L4.03 10.86L4.03 10.86Q4.50 11.14 4.53 11.73ZM7.01 12.67L7.01 12.67L7.01 12.67Q6.90 13.13 6.90 13.75L6.90 13.75L6.90 13.75Q6.90 14.14 6.95 14.51L6.95 14.51L6.95 14.51Q7 14.89 7.13 15.30L7.13 15.30L7.13 15.30Q7.27 15.71 7.47 16.01L7.47 16.01L7.47 16.01Q7.67 16.32 8.01 16.52L8.01 16.52L8.01 16.52Q8.35 16.71 8.79 16.71L8.79 16.71L8.79 16.71Q9.23 16.71 9.56 16.54L9.56 16.54L9.56 16.54Q9.89 16.37 10.09 16.10L10.09 16.10L10.09 16.10Q10.29 15.83 10.41 15.46L10.41 15.46L10.41 15.46Q10.53 15.09 10.58 14.74L10.58 14.74L10.58 14.74Q10.62 14.39 10.62 14.01L10.62 14.01L10.62 14.01Q10.62 13.62 10.59 13.26L10.59 13.26L10.59 13.26Q10.55 12.91 10.43 12.50L10.43 12.50L10.43 12.50Q10.31 12.10 10.11 11.81L10.11 11.81L10.11 11.81Q9.92 11.52 9.57 11.32L9.57 11.32L9.57 11.32Q9.23 11.13 8.78 11.13L8.78 11.13L8.78 11.13Q8.18 11.13 7.69 11.53L7.69 11.53L7.69 11.53Q7.20 11.92 7.01 12.67ZM8.42 17.29L8.42 17.29L8.42 17.29Q7.72 17.29 7.19 17.04L7.19 17.04L7.19 17.04Q6.67 16.80 6.36 16.37L6.36 16.37L6.36 16.37Q6.06 15.94 5.90 15.44L5.90 15.44L5.90 15.44Q5.74 14.94 5.70 14.35L5.70 14.35L5.70 14.35Q5.70 13.47 5.85 12.79L5.85 12.79L5.85 12.79Q6.01 12.11 6.47 11.61L6.47 11.61L6.47 11.61Q6.94 11.09 7.63 10.84L7.63 10.84L7.63 10.84Q8.33 10.58 9.10 10.58L9.10 10.58L9.10 10.58Q9.84 10.58 10.39 10.85L10.39 10.85L10.39 10.85Q10.95 11.12 11.26 11.58L11.26 11.58L11.26 11.58Q11.57 12.04 11.72 12.59L11.72 12.59L11.72 12.59Q11.87 13.13 11.87 13.75L11.87 13.75L11.87 13.75Q11.87 15.36 11.06 16.26L11.06 16.26L11.06 16.26Q10.60 16.79 9.90 17.04L9.90 17.04L9.90 17.04Q9.21 17.29 8.42 17.29ZM12.23 11.09L12.33 11.01L13.79 11.01L13.88 10.93L13.88 10.93Q13.88 9.79 14.14 9.22L14.14 9.22L14.14 9.22Q14.44 8.50 15.02 8.11L15.02 8.11L15.02 8.11Q15.60 7.72 16.28 7.72L16.28 7.72L16.28 7.72Q17.21 7.72 17.58 8.48L17.58 8.48L16.77 9.24L16.60 9.18L16.60 9.18Q16.57 9.04 16.55 8.97L16.55 8.97L16.55 8.97Q16.54 8.89 16.47 8.74L16.47 8.74L16.47 8.74Q16.41 8.59 16.34 8.51L16.34 8.51L16.34 8.51Q16.26 8.43 16.12 8.36L16.12 8.36L16.12 8.36Q15.97 8.29 15.78 8.29L15.78 8.29L15.78 8.29Q15.36 8.29 15.15 9.03L15.15 9.03L15.15 9.03Q14.94 9.77 14.94 10.93L14.94 10.93L15.00 11.01L16.73 11.01L16.81 11.12L16.71 11.42L16.61 11.50L15.00 11.50L14.92 11.59L14.92 13.14L14.92 13.14Q14.92 15.22 15.06 16.92L15.06 16.92L13.95 17.26L13.71 17.10L13.71 17.10Q13.90 14.43 13.90 13.13L13.90 13.13L13.90 11.61L13.81 11.50L12.24 11.50L12.17 11.41L12.23 11.09ZM18.05 8.94L18.05 8.94L19.23 8.54L19.33 8.61L19.33 8.61Q19.19 10.23 19.17 10.93L19.17 10.93L19.26 11.00L21.05 11.00L21.12 11.05L21.01 11.42L20.92 11.49L19.26 11.49L19.17 11.57L19.17 14.22L19.17 14.22Q19.17 14.65 19.21 14.97L19.21 14.97L19.21 14.97Q19.24 15.30 19.34 15.63L19.34 15.63L19.34 15.63Q19.43 15.96 19.64 16.14L19.64 16.14L19.64 16.14Q19.85 16.32 20.17 16.32L20.17 16.32L20.17 16.32Q20.54 16.32 21.44 15.74L21.44 15.74L21.61 15.77L21.70 15.98L21.70 15.98Q20.39 17.21 19.41 17.21L19.41 17.21L19.41 17.21Q18.73 17.21 18.40 16.78L18.40 16.78L18.40 16.78Q18.18 16.50 18.13 16.09L18.13 16.09L18.13 16.09Q18.08 15.67 18.08 14.25L18.08 14.25L18.08 11.59L18.00 11.49L16.43 11.49L16.36 11.42L16.45 11.08L16.54 11.00L18.00 11.00L18.08 10.92L18.08 10.92Q18.08 9.30 18.05 8.94ZM29.81 11.27L29.81 11.27L29.81 11.27Q29.80 11.24 29.80 11.18L29.80 11.18L29.80 11.18Q29.80 11.09 29.83 11.08L29.83 11.08L30.63 10.60L30.63 10.60Q30.64 10.58 30.71 10.58L30.71 10.58L30.71 10.58Q30.94 10.58 31.12 11.09L31.12 11.09L31.12 11.09Q31.31 11.59 31.31 11.92L31.31 11.92L31.31 11.92Q31.31 12.44 31.10 12.94L31.10 12.94L31.10 12.94Q30.90 13.44 30.52 14.07L30.52 14.07L30.52 14.07Q29.74 15.36 28.31 16.91L28.31 16.91L28.31 16.91Q28.02 17.20 27.82 17.20L27.82 17.20L27.82 17.20Q27.71 17.20 27.60 17.10L27.60 17.10L27.60 17.10Q27.49 17.01 27.46 16.91L27.46 16.91L27.46 16.91Q27.19 16.16 26.19 12.19L26.19 12.19L26.19 12.19Q26.12 12.05 26.06 12.05L26.06 12.05L26.06 12.05Q25.93 12.05 25.91 12.12L25.91 12.12L25.91 12.12Q24.32 15.04 23.40 17.02L23.40 17.02L22.81 17.20L22.72 17.12L22.37 13.98L22.37 13.98Q22.31 13.43 22.24 13.00L22.24 13.00L22.24 13.00Q22.16 12.56 22.09 12.28L22.09 12.28L22.09 12.28Q22.02 12.01 21.93 11.81L21.93 11.81L21.93 11.81Q21.85 11.61 21.79 11.52L21.79 11.52L21.79 11.52Q21.73 11.43 21.65 11.38L21.65 11.38L21.65 11.38Q21.57 11.33 21.54 11.33L21.54 11.33L21.54 11.33Q21.51 11.32 21.46 11.32L21.46 11.32L21.46 11.32Q21.13 11.32 20.30 11.76L20.30 11.76L20.18 11.48L20.18 11.48Q21 10.89 21.36 10.72L21.36 10.72L21.36 10.72Q21.77 10.52 22.05 10.52L22.05 10.52L22.05 10.52Q22.32 10.52 22.52 10.64L22.52 10.64L22.52 10.64Q22.73 10.77 22.85 10.99L22.85 10.99L22.85 10.99Q22.97 11.20 23.03 11.41L23.03 11.41L23.03 11.41Q23.10 11.61 23.15 11.87L23.15 11.87L23.15 11.87Q23.24 12.37 23.31 12.94L23.31 12.94L23.31 12.94Q23.37 13.51 23.44 14.19L23.44 14.19L23.44 14.19Q23.50 14.88 23.55 15.27L23.55 15.27L23.71 15.30L23.71 15.30Q25.25 12.52 26.03 10.92L26.03 10.92L26.76 10.55L26.93 10.60L26.93 10.60Q27.61 13.92 28.29 15.74L28.29 15.74L28.29 15.74Q28.32 15.83 28.39 15.89L28.39 15.89L28.39 15.89Q28.46 15.96 28.54 15.96L28.54 15.96L28.54 15.96Q28.64 15.96 28.75 15.82L28.75 15.82L28.75 15.82Q29.52 14.83 29.80 14.38L29.80 14.38L29.80 14.38Q30.34 13.47 30.34 12.72L30.34 12.72L30.34 12.72Q30.34 12.17 29.81 11.27ZM36.80 11.05L36.80 11.05L37.54 10.62L37.61 10.69L37.61 10.69Q37.52 12.36 37.52 13.75L37.52 13.75L37.52 13.75Q37.52 13.88 37.51 14.16L37.51 14.16L37.51 14.16Q37.50 14.44 37.50 14.65L37.50 14.65L37.50 14.65Q37.50 14.86 37.50 15.14L37.50 15.14L37.50 15.14Q37.50 15.42 37.54 15.61L37.54 15.61L37.54 15.61Q37.57 15.81 37.63 15.99L37.63 15.99L37.63 15.99Q37.69 16.17 37.80 16.27L37.80 16.27L37.80 16.27Q37.91 16.37 38.07 16.37L38.07 16.37L38.07 16.37Q38.30 16.37 38.98 16.11L38.98 16.11L39.08 16.45L39.08 16.45Q39.04 16.47 38.89 16.56L38.89 16.56L38.89 16.56Q38.74 16.65 38.68 16.69L38.68 16.69L38.68 16.69Q38.62 16.72 38.48 16.80L38.48 16.80L38.48 16.80Q38.34 16.88 38.26 16.93L38.26 16.93L38.26 16.93Q38.19 16.97 38.06 17.03L38.06 17.03L38.06 17.03Q37.93 17.10 37.85 17.13L37.85 17.13L37.85 17.13Q37.76 17.16 37.66 17.20L37.66 17.20L37.66 17.20Q37.56 17.23 37.47 17.25L37.47 17.25L37.47 17.25Q37.39 17.26 37.32 17.26L37.32 17.26L37.32 17.26Q36.96 17.26 36.77 17.05L36.77 17.05L36.77 17.05Q36.59 16.83 36.52 16.43L36.52 16.43L36.31 16.38L36.31 16.38Q34.97 17.26 34.02 17.26L34.02 17.26L34.02 17.26Q33.47 17.26 33.05 17.01L33.05 17.01L33.05 17.01Q32.63 16.76 32.41 16.34L32.41 16.34L32.41 16.34Q32.18 15.93 32.07 15.47L32.07 15.47L32.07 15.47Q31.96 15.00 31.96 14.50L31.96 14.50L31.96 14.50Q31.96 13.89 32.08 13.33L32.08 13.33L32.08 13.33Q32.20 12.77 32.46 12.26L32.46 12.26L32.46 12.26Q32.72 11.76 33.10 11.38L33.10 11.38L33.10 11.38Q33.48 11.01 34.04 10.79L34.04 10.79L34.04 10.79Q34.61 10.57 35.30 10.57L35.30 10.57L35.30 10.57Q35.66 10.57 36.06 10.69L36.06 10.69L36.06 10.69Q36.47 10.82 36.80 11.05ZM36.49 15.70L36.49 15.70L36.49 12.48L36.49 12.48Q36.49 12.24 36.48 12.11L36.48 12.11L36.48 12.11Q36.48 11.98 36.42 11.81L36.42 11.81L36.42 11.81Q36.37 11.63 36.26 11.52L36.26 11.52L36.26 11.52Q35.82 11.05 35.31 11.05L35.31 11.05L35.31 11.05Q34.54 11.05 33.98 11.59L33.98 11.59L33.98 11.59Q33.69 11.87 33.47 12.49L33.47 12.49L33.47 12.49Q33.25 13.12 33.23 14.08L33.23 14.08L33.23 14.08Q33.20 15.12 33.62 15.76L33.62 15.76L33.62 15.76Q33.98 16.33 35.01 16.33L35.01 16.33L35.01 16.33Q35.68 16.33 36.49 15.70ZM43.91 11.66L43.16 12.35L42.99 12.27L42.99 12.27Q42.93 11.93 42.75 11.70L42.75 11.70L42.75 11.70Q42.57 11.46 42.25 11.46L42.25 11.46L42.25 11.46Q41.86 11.46 41.59 11.72L41.59 11.72L41.59 11.72Q41.32 11.98 41.17 12.33L41.17 12.33L41.17 12.33Q41.08 12.54 41.06 12.91L41.06 12.91L41.06 12.91Q41.04 13.28 41.06 13.94L41.06 13.94L41.06 13.94Q41.08 14.59 41.08 14.71L41.08 14.71L41.08 14.71Q41.08 15.77 41.12 16.84L41.12 16.84L40.13 17.13L39.93 17.01L39.93 17.01Q40.09 15.05 40.09 13.69L40.09 13.69L40.09 13.69Q40.09 13.62 40.09 13.50L40.09 13.50L40.09 13.50Q40.09 13.23 40.09 13.10L40.09 13.10L40.09 13.10Q40.09 12.97 40.09 12.73L40.09 12.73L40.09 12.73Q40.08 12.48 40.06 12.35L40.06 12.35L40.06 12.35Q40.04 12.21 40.02 12.02L40.02 12.02L40.02 12.02Q40.00 11.83 39.95 11.73L39.95 11.73L39.95 11.73Q39.90 11.63 39.84 11.52L39.84 11.52L39.84 11.52Q39.78 11.41 39.69 11.36L39.69 11.36L39.69 11.36Q39.60 11.32 39.49 11.32L39.49 11.32L39.49 11.32Q39.17 11.32 38.40 11.76L38.40 11.76L38.23 11.52L38.23 11.52Q38.66 11.18 38.87 11.03L38.87 11.03L38.87 11.03Q39.08 10.87 39.47 10.67L39.47 10.67L39.47 10.67Q39.85 10.47 40.12 10.47L40.12 10.47L40.12 10.47Q40.99 10.47 41.13 11.48L41.13 11.48L41.27 11.53L41.27 11.53Q42.28 10.55 42.81 10.55L42.81 10.55L42.81 10.55Q43.81 10.55 43.91 11.66L43.91 11.66ZM45.75 11.55L45.75 11.55L45.75 11.55Q45.37 11.95 45.24 12.41L45.24 12.41L45.24 12.41Q45.10 12.87 45.10 13.45L45.10 13.45L45.10 13.45Q45.10 13.54 45.13 13.70L45.13 13.70L45.19 13.76L48.02 12.64L48.02 12.64Q48.19 12.58 48.19 12.27L48.19 12.27L48.19 12.27Q48.19 11.79 47.83 11.38L47.83 11.38L47.83 11.38Q47.48 10.96 46.92 10.96L46.92 10.96L46.92 10.96Q46.22 10.96 45.75 11.55ZM49.10 12.63L49.10 12.63L45.16 14.33L45.16 14.33Q45.19 14.69 45.31 15.02L45.31 15.02L45.31 15.02Q45.42 15.35 45.62 15.65L45.62 15.65L45.62 15.65Q45.83 15.95 46.17 16.13L46.17 16.13L46.17 16.13Q46.52 16.30 46.96 16.30L46.96 16.30L46.96 16.30Q47.90 16.30 49.12 15.35L49.12 15.35L49.27 15.38L49.46 15.63L49.46 15.63Q47.72 17.26 46.27 17.26L46.27 17.26L46.27 17.26Q45.73 17.26 45.31 17.06L45.31 17.06L45.31 17.06Q44.89 16.86 44.64 16.55L44.64 16.55L44.64 16.55Q44.39 16.23 44.23 15.78L44.23 15.78L44.23 15.78Q44.06 15.33 44.00 14.88L44.00 14.88L44.00 14.88Q43.94 14.44 43.94 13.92L43.94 13.92L43.94 13.92Q43.94 12.48 44.65 11.66L44.65 11.66L44.65 11.66Q45.17 11.05 45.89 10.73L45.89 10.73L45.89 10.73Q46.61 10.40 47.41 10.40L47.41 10.40L47.41 10.40Q48.30 10.40 48.85 10.95L48.85 10.95L48.85 10.95Q49.40 11.50 49.40 12.33L49.40 12.33L49.40 12.33Q49.40 12.41 49.35 12.47L49.35 12.47L49.35 12.47Q49.30 12.53 49.26 12.55L49.26 12.55L49.26 12.55Q49.21 12.58 49.10 12.63ZM55.41 8.61L55.41 8.61L54.53 9.39L54.35 9.34L54.35 9.34Q53.95 7.78 52.64 7.78L52.64 7.78L52.64 7.78Q51.98 7.78 51.53 8.26L51.53 8.26L51.53 8.26Q51.08 8.74 51.08 9.43L51.08 9.43L51.08 9.43Q51.08 9.82 51.26 10.17L51.26 10.17L51.26 10.17Q51.43 10.51 51.76 10.78L51.76 10.78L51.76 10.78Q52.08 11.05 52.42 11.24L52.42 11.24L52.42 11.24Q52.77 11.44 53.23 11.64L53.23 11.64L53.23 11.64Q54.36 12.13 54.91 12.74L54.91 12.74L54.91 12.74Q55.45 13.34 55.45 14.16L55.45 14.16L55.45 14.16Q55.45 14.83 55.10 15.43L55.10 15.43L55.10 15.43Q54.76 16.02 54.21 16.43L54.21 16.43L54.21 16.43Q53.66 16.83 52.98 17.07L52.98 17.07L52.98 17.07Q52.30 17.30 51.63 17.30L51.63 17.30L51.63 17.30Q50.85 17.30 50.22 16.95L50.22 16.95L50.22 16.95Q49.59 16.60 49.32 15.87L49.32 15.87L50.12 14.95L50.36 14.96L50.36 14.96Q50.87 16.66 52.22 16.66L52.22 16.66L52.22 16.66Q53.05 16.66 53.63 16.06L53.63 16.06L53.63 16.06Q54.22 15.47 54.22 14.59L54.22 14.59L54.22 14.59Q54.22 14.04 53.72 13.51L53.72 13.51L53.72 13.51Q53.21 12.99 52.53 12.69L52.53 12.69L52.53 12.69Q51.85 12.41 51.40 12.14L51.40 12.14L51.40 12.14Q50.96 11.88 50.62 11.55L50.62 11.55L50.62 11.55Q50.28 11.22 50.12 10.82L50.12 10.82L50.12 10.82Q49.96 10.42 49.96 9.92L49.96 9.92L49.96 9.92Q49.96 9.28 50.21 8.77L50.21 8.77L50.21 8.77Q50.46 8.25 50.88 7.93L50.88 7.93L50.88 7.93Q51.30 7.61 51.83 7.43L51.83 7.43L51.83 7.43Q52.36 7.26 52.94 7.26L52.94 7.26L52.94 7.26Q53.36 7.26 53.68 7.31L53.68 7.31L53.68 7.31Q54.00 7.36 54.32 7.49L54.32 7.49L54.32 7.49Q54.65 7.63 54.92 7.91L54.92 7.91L54.92 7.91Q55.19 8.18 55.41 8.61ZM61.53 15.46L61.65 15.50L61.80 15.74L61.80 15.74Q61.04 16.49 60.29 16.92L60.29 16.92L60.29 16.92Q59.53 17.36 58.67 17.36L58.67 17.36L58.67 17.36Q58.20 17.36 57.82 17.24L57.82 17.24L57.82 17.24Q57.44 17.13 57.19 16.95L57.19 16.95L57.19 16.95Q56.94 16.77 56.76 16.49L56.76 16.49L56.76 16.49Q56.58 16.21 56.48 15.94L56.48 15.94L56.48 15.94Q56.38 15.67 56.33 15.31L56.33 15.31L56.33 15.31Q56.27 14.95 56.26 14.68L56.26 14.68L56.26 14.68Q56.25 14.41 56.25 14.05L56.25 14.05L56.25 14.05Q56.25 12.48 57.24 11.46L57.24 11.46L57.24 11.46Q58.24 10.44 59.79 10.44L59.79 10.44L59.79 10.44Q60.47 10.44 60.91 10.82L60.91 10.82L60.91 10.82Q61.35 11.20 61.41 11.81L61.41 11.81L60.66 12.55L60.42 12.47L60.42 12.47Q60.33 11.77 60.01 11.38L60.01 11.38L60.01 11.38Q59.69 10.99 59.23 10.99L59.23 10.99L59.23 10.99Q58.67 10.99 58.24 11.39L58.24 11.39L58.24 11.39Q57.81 11.80 57.61 12.39L57.61 12.39L57.61 12.39Q57.41 12.97 57.41 13.62L57.41 13.62L57.41 13.62Q57.41 14.01 57.45 14.38L57.45 14.38L57.45 14.38Q57.50 14.74 57.63 15.12L57.63 15.12L57.63 15.12Q57.76 15.51 57.98 15.79L57.98 15.79L57.98 15.79Q58.19 16.07 58.55 16.25L58.55 16.25L58.55 16.25Q58.91 16.43 59.38 16.43L59.38 16.43L59.38 16.43Q60.41 16.43 61.53 15.46L61.53 15.46ZM69.91 15.59L69.91 15.59L70.09 15.73L70.09 15.89L70.09 15.89Q69.51 16.50 68.99 16.86L68.99 16.86L68.99 16.86Q68.46 17.23 67.89 17.23L67.89 17.23L67.89 17.23Q67.44 17.23 67.20 16.82L67.20 16.82L67.20 16.82Q66.96 16.41 66.96 15.85L66.96 15.85L66.96 15.85Q66.96 15.44 67.00 14.51L67.00 14.51L67.00 14.51Q67.03 13.58 67.03 13.36L67.03 13.36L67.03 13.36Q67.03 13.02 67.00 12.75L67.00 12.75L67.00 12.75Q66.98 12.49 66.90 12.23L66.90 12.23L66.90 12.23Q66.83 11.97 66.70 11.81L66.70 11.81L66.70 11.81Q66.57 11.64 66.35 11.54L66.35 11.54L66.35 11.54Q66.12 11.44 65.82 11.44L65.82 11.44L65.82 11.44Q65.31 11.44 64.84 11.66L64.84 11.66L64.84 11.66Q64.37 11.89 63.83 12.27L63.83 12.27L63.83 12.27Q63.83 13.04 63.82 14.58L63.82 14.58L63.82 14.58Q63.81 16.11 63.81 16.86L63.81 16.86L62.79 17.17L62.71 17.04L62.71 17.04Q62.90 13.50 62.91 11.49L62.91 11.49L62.91 11.49Q62.91 11.26 62.91 10.82L62.91 10.82L62.91 10.82Q62.92 10.38 62.92 10.18L62.92 10.18L62.92 10.18Q62.92 9.97 62.91 9.65L62.91 9.65L62.91 9.65Q62.90 9.32 62.87 9.15L62.87 9.15L62.87 9.15Q62.84 8.97 62.78 8.78L62.78 8.78L62.78 8.78Q62.72 8.59 62.63 8.46L62.63 8.46L62.63 8.46Q62.61 8.44 62.58 8.41L62.58 8.41L62.58 8.41Q62.54 8.38 62.49 8.36L62.49 8.36L62.49 8.36Q62.43 8.33 62.38 8.31L62.38 8.31L62.38 8.31Q62.33 8.29 62.25 8.27L62.25 8.27L62.25 8.27Q62.17 8.24 62.12 8.23L62.12 8.23L62.12 8.23Q62.06 8.22 61.97 8.19L61.97 8.19L61.97 8.19Q61.87 8.17 61.82 8.16L61.82 8.16L61.82 8.16Q61.78 8.15 61.68 8.13L61.68 8.13L61.68 8.13Q61.58 8.11 61.55 8.10L61.55 8.10L61.55 7.85L61.62 7.79L63.83 7.55L63.92 7.66L63.92 7.66Q63.86 8.85 63.86 11.52L63.86 11.52L63.97 11.63L63.97 11.63Q64.50 11.31 64.86 11.12L64.86 11.12L64.86 11.12Q65.22 10.92 65.77 10.75L65.77 10.75L65.77 10.75Q66.31 10.57 66.79 10.57L66.79 10.57L66.79 10.57Q66.96 10.57 67.24 10.67L67.24 10.67L67.24 10.67Q67.51 10.78 67.70 10.96L67.70 10.96L67.70 10.96Q67.79 11.04 67.85 11.15L67.85 11.15L67.85 11.15Q67.91 11.27 67.95 11.43L67.95 11.43L67.95 11.43Q67.98 11.60 68.00 11.74L68.00 11.74L68.00 11.74Q68.02 11.89 68.03 12.13L68.03 12.13L68.03 12.13Q68.04 12.37 68.04 12.53L68.04 12.53L68.04 12.53Q68.04 12.69 68.03 12.99L68.03 12.99L68.03 12.99Q68.03 13.29 68.03 13.45L68.03 13.45L68.03 14.49L68.03 14.49Q68.03 14.55 68.02 14.76L68.02 14.76L68.02 14.76Q68.02 14.96 68.02 15.08L68.02 15.08L68.02 15.08Q68.02 15.20 68.04 15.40L68.04 15.40L68.04 15.40Q68.05 15.61 68.09 15.73L68.09 15.73L68.09 15.73Q68.13 15.85 68.20 15.97L68.20 15.97L68.20 15.97Q68.26 16.10 68.38 16.16L68.38 16.16L68.38 16.16Q68.50 16.22 68.65 16.22L68.65 16.22L68.65 16.22Q69.25 16.22 69.91 15.59ZM71.20 12.67L71.20 12.67L71.20 12.67Q71.09 13.13 71.09 13.75L71.09 13.75L71.09 13.75Q71.09 14.14 71.14 14.51L71.14 14.51L71.14 14.51Q71.19 14.89 71.32 15.30L71.32 15.30L71.32 15.30Q71.46 15.71 71.66 16.01L71.66 16.01L71.66 16.01Q71.86 16.32 72.20 16.52L72.20 16.52L72.20 16.52Q72.54 16.71 72.98 16.71L72.98 16.71L72.98 16.71Q73.42 16.71 73.75 16.54L73.75 16.54L73.75 16.54Q74.08 16.37 74.28 16.10L74.28 16.10L74.28 16.10Q74.48 15.83 74.60 15.46L74.60 15.46L74.60 15.46Q74.72 15.09 74.77 14.74L74.77 14.74L74.77 14.74Q74.81 14.39 74.81 14.01L74.81 14.01L74.81 14.01Q74.81 13.62 74.77 13.26L74.77 13.26L74.77 13.26Q74.74 12.91 74.62 12.50L74.62 12.50L74.62 12.50Q74.50 12.10 74.30 11.81L74.30 11.81L74.30 11.81Q74.11 11.52 73.76 11.32L73.76 11.32L73.76 11.32Q73.42 11.13 72.97 11.13L72.97 11.13L72.97 11.13Q72.37 11.13 71.88 11.53L71.88 11.53L71.88 11.53Q71.39 11.92 71.20 12.67ZM72.60 17.29L72.60 17.29L72.60 17.29Q71.91 17.29 71.38 17.04L71.38 17.04L71.38 17.04Q70.86 16.80 70.55 16.37L70.55 16.37L70.55 16.37Q70.25 15.94 70.09 15.44L70.09 15.44L70.09 15.44Q69.93 14.94 69.89 14.35L69.89 14.35L69.89 14.35Q69.89 13.47 70.04 12.79L70.04 12.79L70.04 12.79Q70.20 12.11 70.66 11.61L70.66 11.61L70.66 11.61Q71.13 11.09 71.82 10.84L71.82 10.84L71.82 10.84Q72.52 10.58 73.29 10.58L73.29 10.58L73.29 10.58Q74.03 10.58 74.58 10.85L74.58 10.85L74.58 10.85Q75.14 11.12 75.45 11.58L75.45 11.58L75.45 11.58Q75.76 12.04 75.91 12.59L75.91 12.59L75.91 12.59Q76.06 13.13 76.06 13.75L76.06 13.75L76.06 13.75Q76.06 15.36 75.25 16.26L75.25 16.26L75.25 16.26Q74.79 16.79 74.09 17.04L74.09 17.04L74.09 17.04Q73.40 17.29 72.60 17.29ZM78.48 12.67L78.48 12.67L78.48 12.67Q78.37 13.13 78.37 13.75L78.37 13.75L78.37 13.75Q78.37 14.14 78.42 14.51L78.42 14.51L78.42 14.51Q78.46 14.89 78.60 15.30L78.60 15.30L78.60 15.30Q78.73 15.71 78.93 16.01L78.93 16.01L78.93 16.01Q79.13 16.32 79.47 16.52L79.47 16.52L79.47 16.52Q79.82 16.71 80.25 16.71L80.25 16.71L80.25 16.71Q80.69 16.71 81.02 16.54L81.02 16.54L81.02 16.54Q81.35 16.37 81.55 16.10L81.55 16.10L81.55 16.10Q81.75 15.83 81.87 15.46L81.87 15.46L81.87 15.46Q82.00 15.09 82.04 14.74L82.04 14.74L82.04 14.74Q82.09 14.39 82.09 14.01L82.09 14.01L82.09 14.01Q82.09 13.62 82.05 13.26L82.05 13.26L82.05 13.26Q82.01 12.91 81.89 12.50L81.89 12.50L81.89 12.50Q81.77 12.10 81.58 11.81L81.58 11.81L81.58 11.81Q81.38 11.52 81.04 11.32L81.04 11.32L81.04 11.32Q80.69 11.13 80.24 11.13L80.24 11.13L80.24 11.13Q79.64 11.13 79.15 11.53L79.15 11.53L79.15 11.53Q78.66 11.92 78.48 12.67ZM79.88 17.29L79.88 17.29L79.88 17.29Q79.18 17.29 78.66 17.04L78.66 17.04L78.66 17.04Q78.13 16.80 77.83 16.37L77.83 16.37L77.83 16.37Q77.52 15.94 77.36 15.44L77.36 15.44L77.36 15.44Q77.21 14.94 77.16 14.35L77.16 14.35L77.16 14.35Q77.16 13.47 77.32 12.79L77.32 12.79L77.32 12.79Q77.47 12.11 77.93 11.61L77.93 11.61L77.93 11.61Q78.40 11.09 79.10 10.84L79.10 10.84L79.10 10.84Q79.79 10.58 80.56 10.58L80.56 10.58L80.56 10.58Q81.30 10.58 81.86 10.85L81.86 10.85L81.86 10.85Q82.41 11.12 82.73 11.58L82.73 11.58L82.73 11.58Q83.04 12.04 83.19 12.59L83.19 12.59L83.19 12.59Q83.34 13.13 83.34 13.75L83.34 13.75L83.34 13.75Q83.34 15.36 82.52 16.26L82.52 16.26L82.52 16.26Q82.06 16.79 81.36 17.04L81.36 17.04L81.36 17.04Q80.67 17.29 79.88 17.29ZM87.92 15.52L87.92 15.52L88.07 15.52L88.23 15.69L88.23 15.69Q87.23 17.25 86.10 17.25L86.10 17.25L86.10 17.25Q85.72 17.25 85.48 17.10L85.48 17.10L85.48 17.10Q85.24 16.95 85.10 16.50L85.10 16.50L85.10 16.50Q84.95 16.05 84.95 15.27L84.95 15.27L85.05 9.98L85.05 9.98Q85.05 8.95 84.98 8.58L84.98 8.58L84.98 8.58Q84.96 8.49 84.91 8.42L84.91 8.42L84.91 8.42Q84.85 8.35 84.77 8.31L84.77 8.31L84.77 8.31Q84.68 8.27 84.60 8.24L84.60 8.24L84.60 8.24Q84.53 8.21 84.40 8.20L84.40 8.20L84.40 8.20Q84.27 8.18 84.19 8.18L84.19 8.18L84.19 8.18Q84.11 8.17 83.96 8.16L83.96 8.16L83.96 8.16Q83.82 8.16 83.76 8.16L83.76 8.16L83.76 7.83L83.85 7.77L86.15 7.49L86.24 7.58L86.24 7.58Q86.23 8.13 86.14 10.23L86.14 10.23L86.14 10.23Q86.04 12.33 86.04 13.47L86.04 13.47L86.04 13.47Q86.04 13.65 86.04 13.92L86.04 13.92L86.04 13.92Q86.04 14.19 86.03 14.37L86.03 14.37L86.03 14.37Q86.03 14.54 86.03 14.77L86.03 14.77L86.03 14.77Q86.03 15.00 86.05 15.16L86.05 15.16L86.05 15.16Q86.06 15.31 86.09 15.48L86.09 15.48L86.09 15.48Q86.11 15.65 86.16 15.76L86.16 15.76L86.16 15.76Q86.21 15.87 86.29 15.97L86.29 15.97L86.29 15.97Q86.37 16.07 86.47 16.12L86.47 16.12L86.47 16.12Q86.58 16.17 86.71 16.18L86.71 16.18L86.71 16.18Q86.93 16.18 87.17 16.06L87.17 16.06L87.17 16.06Q87.40 15.95 87.54 15.84L87.54 15.84L87.54 15.84Q87.68 15.74 87.92 15.52Z"></path></g><defs data-v-fde0c5aa=""><!----></defs><g data-v-fde0c5aa="" id="d12407ba-b6bc-4e89-8838-5962c54bb9c1" stroke="none" fill="#EDC9B2" transform="matrix(1.313094973564148,0,0,1.313094973564148,40,128.99047971401814)"><path d="M9.571 20.464l8.064 4.47 8.065-4.47v-8.939l-8.065-4.469-8.064 4.469z"></path><path d="M32 0H0v32h32l-5.054-5.172H5.054V5.172h21.892z"></path></g><defs data-v-fde0c5aa=""><!----></defs><g data-v-fde0c5aa="" id="510658b4-668a-4ccd-8668-2d9beffb6c09" fill="#EDC9B2" transform="matrix(0.42030152678489685,0,0,0.42030152678489685,94.90135614279865,158.05491141300251)"><path d="M0.28 3.71L0.28 3.71L0.28 3.71Q0.28 3.50 0.53 3.50L0.53 3.50L0.53 3.50Q0.62 3.50 0.92 3.53L0.92 3.53L0.92 3.53Q1.22 3.56 1.27 3.56L1.27 3.56L1.27 3.56Q1.48 3.56 1.85 3.54L1.85 3.54L1.85 3.54Q2.21 3.53 2.32 3.53L2.32 3.53L2.32 3.53Q2.59 3.53 2.66 3.72L2.66 3.72L2.66 3.72Q2.83 4.09 3.26 5.03L3.26 5.03L3.26 5.03Q3.70 5.98 3.96 6.54L3.96 6.54L3.96 6.54Q4.21 7.10 4.62 7.97L4.62 7.97L4.62 7.97Q5.03 8.83 5.28 9.37L5.28 9.37L5.28 9.37Q5.53 9.91 5.80 10.46L5.80 10.46L5.80 10.46Q6.08 11.00 6.22 11.26L6.22 11.26L6.22 11.26Q6.37 11.52 6.41 11.52L6.41 11.52L6.41 11.52Q6.45 11.52 6.50 11.47L6.50 11.47L6.50 11.47Q6.55 11.42 6.60 11.34L6.60 11.34L6.60 11.34Q6.65 11.26 6.69 11.17L6.69 11.17L6.69 11.17Q6.72 11.09 6.78 10.96L6.78 10.96L6.78 10.96Q6.85 10.82 6.87 10.75L6.87 10.75L8.68 7.03L8.68 7.03Q8.99 6.40 9.23 5.89L9.23 5.89L9.23 5.89Q9.46 5.39 9.60 5.08L9.60 5.08L9.60 5.08Q9.74 4.77 9.84 4.55L9.84 4.55L9.84 4.55Q9.94 4.33 9.99 4.21L9.99 4.21L9.99 4.21Q10.04 4.10 10.06 4.04L10.06 4.04L10.06 4.04Q10.08 3.98 10.09 3.94L10.09 3.94L10.09 3.94Q10.11 3.91 10.12 3.88L10.12 3.88L10.12 3.88Q10.14 3.85 10.17 3.75L10.17 3.75L10.17 3.75Q10.21 3.65 10.24 3.62L10.24 3.62L10.24 3.62Q10.28 3.58 10.38 3.54L10.38 3.54L10.38 3.54Q10.49 3.50 10.65 3.50L10.65 3.50L10.65 3.50Q10.92 3.50 11.15 3.51L11.15 3.51L11.15 3.51Q11.38 3.53 11.86 3.53L11.86 3.53L11.86 3.53Q12.10 3.53 12.10 3.71L12.10 3.71L12.10 3.71Q12.10 3.85 12.01 3.91L12.01 3.91L12.01 3.91Q11.91 3.98 11.63 4.02L11.63 4.02L11.63 4.02Q11.28 4.06 11.14 4.37L11.14 4.37L11.14 4.37Q11.00 4.68 11.00 5.54L11.00 5.54L11.00 5.54Q11.00 7.43 11.09 8.97L11.09 8.97L11.09 8.97Q11.17 10.50 11.17 10.89L11.17 10.89L11.17 10.89Q11.17 12.29 11.40 12.68L11.40 12.68L11.40 12.68Q11.62 13.06 12.33 13.06L12.33 13.06L12.33 13.06Q12.43 13.06 12.51 13.13L12.51 13.13L12.51 13.13Q12.59 13.20 12.59 13.26L12.59 13.26L12.59 13.26Q12.59 13.34 12.57 13.38L12.57 13.38L12.57 13.38Q12.56 13.43 12.52 13.45L12.52 13.45L12.52 13.45Q12.47 13.48 12.43 13.48L12.43 13.48L12.43 13.48Q12.39 13.48 12.28 13.48L12.28 13.48L12.28 13.48Q11.86 13.48 11.45 13.45L11.45 13.45L11.45 13.45Q11.05 13.43 10.85 13.43L10.85 13.43L10.85 13.43Q10.46 13.43 10.04 13.46L10.04 13.46L10.04 13.46Q9.62 13.50 9.39 13.50L9.39 13.50L9.39 13.50Q9.14 13.50 9.14 13.30L9.14 13.30L9.14 13.30Q9.14 13.17 9.25 13.12L9.25 13.12L9.25 13.12Q9.37 13.06 9.51 13.05L9.51 13.05L9.51 13.05Q9.66 13.03 9.82 12.87L9.82 12.87L9.82 12.87Q9.98 12.71 10.05 12.39L10.05 12.39L10.05 12.39Q10.11 12.11 10.11 11.49L10.11 11.49L10.11 11.49Q10.11 11.05 10.09 10.42L10.09 10.42L10.09 10.42Q10.07 9.79 10.04 9.19L10.04 9.19L10.04 9.19Q10.01 8.60 9.98 8.07L9.98 8.07L9.98 8.07Q9.95 7.55 9.94 7.21L9.94 7.21L9.91 6.87L9.91 6.87Q9.91 6.27 9.79 6.27L9.79 6.27L9.79 6.27Q9.77 6.27 9.74 6.29L9.74 6.29L9.74 6.29Q9.72 6.30 9.70 6.33L9.70 6.33L9.70 6.33Q9.67 6.36 9.65 6.38L9.65 6.38L9.65 6.38Q9.62 6.41 9.59 6.47L9.59 6.47L9.59 6.47Q9.56 6.54 9.53 6.58L9.53 6.58L9.53 6.58Q9.51 6.62 9.46 6.70L9.46 6.70L9.46 6.70Q9.42 6.78 9.39 6.83L9.39 6.83L9.39 6.83Q9.37 6.89 9.32 6.99L9.32 6.99L9.32 6.99Q9.27 7.08 9.24 7.15L9.24 7.15L7.29 11.09L7.29 11.09Q6.96 11.77 6.58 12.56L6.58 12.56L6.58 12.56Q6.33 13.09 6.27 13.18L6.27 13.18L6.27 13.18Q6.22 13.27 6.13 13.27L6.13 13.27L6.13 13.27Q6.01 13.27 5.92 13.15L5.92 13.15L5.92 13.15Q5.84 13.03 5.67 12.63L5.67 12.63L5.67 12.63Q5.50 12.22 5.38 11.96L5.38 11.96L5.38 11.96Q2.81 6.75 2.74 6.65L2.74 6.65L2.74 6.65Q2.70 6.59 2.66 6.59L2.66 6.59L2.66 6.59Q2.55 6.59 2.55 7.15L2.55 7.15L2.55 7.15Q2.53 8.25 2.48 9.31L2.48 9.31L2.48 9.31Q2.42 10.37 2.42 10.85L2.42 10.85L2.42 11.48L2.42 11.48Q2.42 11.84 2.44 12.04L2.44 12.04L2.44 12.04Q2.46 12.24 2.56 12.49L2.56 12.49L2.56 12.49Q2.65 12.75 2.88 12.89L2.88 12.89L2.88 12.89Q3.12 13.03 3.50 13.08L3.50 13.08L3.50 13.08Q3.57 13.08 3.63 13.13L3.63 13.13L3.63 13.13Q3.70 13.17 3.70 13.23L3.70 13.23L3.70 13.23Q3.70 13.38 3.65 13.43L3.65 13.43L3.65 13.43Q3.61 13.48 3.49 13.48L3.49 13.48L3.49 13.48Q3.21 13.48 2.65 13.45L2.65 13.45L2.65 13.45Q2.09 13.43 2.03 13.43L2.03 13.43L2.03 13.43Q2.00 13.43 1.62 13.45L1.62 13.45L1.62 13.45Q1.25 13.47 0.88 13.47L0.88 13.47L0.88 13.47Q0.77 13.47 0.72 13.45L0.72 13.45L0.72 13.45Q0.67 13.44 0.63 13.39L0.63 13.39L0.63 13.39Q0.59 13.34 0.59 13.24L0.59 13.24L0.59 13.24Q0.59 13.13 0.71 13.09L0.71 13.09L0.71 13.09Q0.84 13.05 1.00 13.04L1.00 13.04L1.00 13.04Q1.16 13.03 1.36 12.82L1.36 12.82L1.36 12.82Q1.55 12.60 1.65 12.18L1.65 12.18L1.65 12.18Q1.72 11.87 1.82 9.74L1.82 9.74L1.82 9.74Q1.92 7.62 1.92 6.59L1.92 6.59L1.92 6.59Q1.92 5.19 1.65 4.66L1.65 4.66L1.65 4.66Q1.37 4.13 0.46 3.92L0.46 3.92L0.46 3.92Q0.28 3.88 0.28 3.71ZM20.15 13.33L20.15 13.33L20.15 13.33Q20.15 13.13 20.36 13.06L20.36 13.06L20.36 13.06Q20.80 12.89 21.14 12.31L21.14 12.31L21.14 12.31Q21.48 11.73 22.81 8.83L22.81 8.83L22.81 8.83Q24.18 5.87 25.23 3.63L25.23 3.63L25.23 3.63Q25.33 3.42 25.40 3.36L25.40 3.36L25.40 3.36Q25.48 3.30 25.65 3.30L25.65 3.30L25.65 3.30Q25.77 3.30 25.82 3.36L25.82 3.36L25.82 3.36Q25.86 3.42 26.00 3.82L26.00 3.82L26.00 3.82Q26.08 4.06 26.14 4.23L26.14 4.23L26.14 4.23Q26.21 4.40 26.35 4.77L26.35 4.77L26.35 4.77Q26.49 5.15 26.66 5.56L26.66 5.56L26.66 5.56Q27.10 6.66 28.20 9.22L28.20 9.22L28.20 9.22Q29.30 11.77 29.40 11.98L29.40 11.98L29.40 11.98Q29.64 12.46 29.93 12.71L29.93 12.71L29.93 12.71Q30.23 12.95 30.44 12.97L30.44 12.97L30.44 12.97Q30.66 12.99 30.81 13.04L30.81 13.04L30.81 13.04Q30.95 13.09 30.95 13.26L30.95 13.26L30.95 13.26Q30.95 13.47 30.58 13.47L30.58 13.47L30.58 13.47Q30.42 13.47 29.97 13.43L29.97 13.43L29.97 13.43Q29.53 13.38 29.32 13.38L29.32 13.38L29.32 13.38Q29.05 13.38 28.63 13.41L28.63 13.41L28.63 13.41Q28.21 13.44 28.01 13.44L28.01 13.44L28.01 13.44Q27.58 13.44 27.46 13.40L27.46 13.40L27.46 13.40Q27.34 13.37 27.34 13.24L27.34 13.24L27.34 13.24Q27.34 13.15 27.45 13.08L27.45 13.08L27.45 13.08Q27.57 13.02 27.69 13.00L27.69 13.00L27.69 13.00Q27.82 12.98 27.93 12.87L27.93 12.87L27.93 12.87Q28.04 12.77 28.04 12.59L28.04 12.59L28.04 12.59Q28.04 12.28 27.69 11.33L27.69 11.33L27.69 11.33Q27.34 10.37 27.10 9.93L27.10 9.93L27.10 9.93Q26.98 9.69 26.53 9.69L26.53 9.69L26.53 9.69Q26.46 9.69 25.91 9.70L25.91 9.70L25.91 9.70Q25.37 9.72 24.84 9.72L24.84 9.72L24.09 9.72L24.09 9.72Q23.46 9.72 23.30 9.79L23.30 9.79L23.30 9.79Q23.14 9.86 23.02 10.12L23.02 10.12L23.02 10.12Q22.93 10.30 22.74 10.70L22.74 10.70L22.74 10.70Q22.54 11.10 22.47 11.26L22.47 11.26L22.47 11.26Q22.40 11.41 22.30 11.65L22.30 11.65L22.30 11.65Q22.19 11.90 22.16 12.05L22.16 12.05L22.16 12.05Q22.12 12.19 22.12 12.31L22.12 12.31L22.12 12.31Q22.12 12.63 22.28 12.80L22.28 12.80L22.28 12.80Q22.44 12.96 22.64 12.98L22.64 12.98L22.64 12.98Q22.83 13.01 23.00 13.06L23.00 13.06L23.00 13.06Q23.16 13.12 23.16 13.26L23.16 13.26L23.16 13.26Q23.16 13.36 23.11 13.40L23.11 13.40L23.11 13.40Q23.07 13.45 22.92 13.45L22.92 13.45L22.92 13.45Q22.83 13.45 22.43 13.45L22.43 13.45L22.43 13.45Q22.04 13.44 21.76 13.44L21.76 13.44L21.76 13.44Q21.45 13.44 21.06 13.47L21.06 13.47L21.06 13.47Q20.68 13.50 20.55 13.50L20.55 13.50L20.55 13.50Q20.15 13.50 20.15 13.33ZM23.66 8.71L23.66 8.71L23.66 8.71Q23.66 8.89 23.79 8.93L23.79 8.93L23.79 8.93Q23.91 8.97 24.37 8.97L24.37 8.97L24.81 8.97L26.14 8.96L26.14 8.96Q26.68 8.96 26.68 8.74L26.68 8.74L26.68 8.74Q26.68 8.55 26.00 7.01L26.00 7.01L26.00 7.01Q25.31 5.46 25.13 5.46L25.13 5.46L25.13 5.46Q25.00 5.46 24.33 7.01L24.33 7.01L24.33 7.01Q23.66 8.55 23.66 8.71ZM38.51 3.71L38.51 3.71L38.51 3.71Q38.51 3.53 38.91 3.53L38.91 3.53L38.91 3.53Q39.05 3.53 39.55 3.54L39.55 3.54L39.55 3.54Q40.05 3.56 40.49 3.56L40.49 3.56L40.49 3.56Q40.74 3.56 40.95 3.54L40.95 3.54L40.95 3.54Q41.16 3.53 41.69 3.53L41.69 3.53L41.69 3.53Q41.93 3.53 41.93 3.71L41.93 3.71L41.93 3.71Q41.93 3.77 41.86 3.81L41.86 3.81L41.86 3.81Q41.79 3.85 41.66 3.91L41.66 3.91L41.66 3.91Q41.52 3.96 41.44 4.00L41.44 4.00L41.44 4.00Q41.01 4.26 41.01 5.71L41.01 5.71L41.01 5.71Q41.01 6.47 40.98 7.17L40.98 7.17L40.98 7.17Q40.96 7.87 40.96 7.90L40.96 7.90L40.96 7.90Q40.96 8.19 41.09 8.19L41.09 8.19L41.09 8.19Q41.19 8.19 42.21 7.36L42.21 7.36L42.21 7.36Q43.23 6.52 44.24 5.55L44.24 5.55L44.24 5.55Q45.25 4.58 45.25 4.27L45.25 4.27L45.25 4.27Q45.25 4.19 45.21 4.12L45.21 4.12L45.21 4.12Q45.16 4.06 45.07 4.02L45.07 4.02L45.07 4.02Q44.97 3.98 44.90 3.96L44.90 3.96L44.90 3.96Q44.83 3.93 44.70 3.91L44.70 3.91L44.70 3.91Q44.58 3.89 44.55 3.88L44.55 3.88L44.55 3.88Q44.39 3.85 44.39 3.68L44.39 3.68L44.39 3.68Q44.39 3.53 44.62 3.53L44.62 3.53L44.62 3.53Q44.65 3.53 44.77 3.54L44.77 3.54L44.77 3.54Q44.88 3.54 44.97 3.54L44.97 3.54L44.97 3.54Q45.00 3.54 45.30 3.56L45.30 3.56L45.30 3.56Q45.60 3.57 45.81 3.57L45.81 3.57L47.54 3.53L47.54 3.53Q47.82 3.53 47.82 3.71L47.82 3.71L47.82 3.71Q47.82 3.81 47.74 3.86L47.74 3.86L47.74 3.86Q47.66 3.91 47.42 3.98L47.42 3.98L47.42 3.98Q47.18 4.05 47.01 4.12L47.01 4.12L47.01 4.12Q46.94 4.14 46.33 4.54L46.33 4.54L46.33 4.54Q46.20 4.62 44.74 5.84L44.74 5.84L44.74 5.84Q43.69 6.73 42.31 7.90L42.31 7.90L42.15 8.09L42.15 8.09Q42.15 8.16 42.31 8.32L42.31 8.32L42.31 8.32Q42.97 8.97 44.02 10.01L44.02 10.01L44.02 10.01Q45.96 11.94 46.54 12.42L46.54 12.42L46.54 12.42Q47.11 12.91 47.63 12.99L47.63 12.99L47.63 12.99Q48.03 13.05 48.09 13.16L48.09 13.16L48.09 13.16Q48.10 13.19 48.10 13.24L48.10 13.24L48.10 13.24Q48.10 13.37 47.98 13.40L47.98 13.40L47.98 13.40Q47.87 13.43 47.29 13.43L47.29 13.43L45.93 13.43L45.93 13.43Q45.84 13.43 45.79 13.41L45.79 13.41L45.79 13.41Q45.74 13.40 45.69 13.37L45.69 13.37L45.69 13.37Q45.64 13.34 45.56 13.25L45.56 13.25L45.56 13.25Q45.49 13.16 45.38 13.04L45.38 13.04L45.38 13.04Q45.28 12.92 45.06 12.68L45.06 12.68L45.06 12.68Q44.84 12.43 44.58 12.17L44.58 12.17L44.58 12.17Q41.61 9.16 41.45 9.03L41.45 9.03L41.45 9.03Q41.30 8.90 41.19 8.90L41.19 8.90L41.19 8.90Q40.99 8.90 40.99 9.28L40.99 9.28L40.99 9.32L40.99 9.32Q40.99 9.37 41.00 9.45L41.00 9.45L41.00 9.45Q41.01 9.53 41.01 9.65L41.01 9.65L41.01 9.65Q41.01 9.76 41.01 9.95L41.01 9.95L41.01 9.95Q41.01 10.14 41.01 10.36L41.01 10.36L41.01 10.36Q41.01 12.19 41.22 12.57L41.22 12.57L41.22 12.57Q41.48 13.02 42.15 13.02L42.15 13.02L42.15 13.02Q42.18 13.02 42.21 13.03L42.21 13.03L42.21 13.03Q42.24 13.03 42.27 13.03L42.27 13.03L42.27 13.03Q42.36 13.03 42.46 13.08L42.46 13.08L42.46 13.08Q42.56 13.13 42.56 13.19L42.56 13.19L42.56 13.19Q42.56 13.34 42.48 13.39L42.48 13.39L42.48 13.39Q42.41 13.44 42.21 13.44L42.21 13.44L42.21 13.44Q41.79 13.44 41.43 13.41L41.43 13.41L41.43 13.41Q41.08 13.38 40.88 13.38L40.88 13.38L40.88 13.38Q40.49 13.38 40.03 13.42L40.03 13.42L40.03 13.42Q39.56 13.45 39.34 13.45L39.34 13.45L39.34 13.45Q38.84 13.45 38.84 13.30L38.84 13.30L38.84 13.24L38.84 13.24Q38.84 13.15 38.97 13.11L38.97 13.11L38.97 13.11Q39.10 13.08 39.30 13.02L39.30 13.02L39.30 13.02Q39.49 12.96 39.61 12.85L39.61 12.85L39.61 12.85Q39.80 12.66 39.85 11.95L39.85 11.95L39.85 11.95Q39.90 11.24 39.90 9.69L39.90 9.69L39.90 7.81L39.90 7.81Q39.90 7.63 39.89 7.12L39.89 7.12L39.89 7.12Q39.87 6.61 39.87 6.30L39.87 6.30L39.87 5.66L39.87 5.66Q39.87 4.94 39.83 4.63L39.83 4.63L39.83 4.63Q39.79 4.30 39.47 4.12L39.47 4.12L39.47 4.12Q39.16 3.93 38.81 3.92L38.81 3.92L38.81 3.92Q38.51 3.91 38.51 3.71ZM55.65 3.65L55.65 3.65L55.65 3.65Q55.65 3.46 56.04 3.46L56.04 3.46L56.04 3.46Q56.10 3.46 56.22 3.47L56.22 3.47L56.22 3.47Q56.35 3.49 56.42 3.49L56.42 3.49L56.42 3.49Q56.46 3.49 57.74 3.52L57.74 3.52L57.74 3.52Q59.01 3.56 59.84 3.56L59.84 3.56L59.84 3.56Q60.13 3.56 61.29 3.53L61.29 3.53L61.29 3.53Q62.44 3.50 62.64 3.50L62.64 3.50L62.64 3.50Q62.90 3.50 62.90 3.82L62.90 3.82L62.90 3.82Q62.90 3.91 62.82 4.38L62.82 4.38L62.82 4.38Q62.73 4.84 62.73 5.25L62.73 5.25L62.73 5.25Q62.73 5.38 62.66 5.47L62.66 5.47L62.66 5.47Q62.59 5.56 62.51 5.56L62.51 5.56L62.51 5.56Q62.30 5.56 62.30 5.26L62.30 5.26L62.30 5.26Q62.30 4.89 62.06 4.58L62.06 4.58L62.06 4.58Q61.82 4.27 61.47 4.26L61.47 4.26L61.47 4.26Q60.21 4.16 59.54 4.16L59.54 4.16L59.18 4.16L59.18 4.16Q58.45 4.16 58.33 4.26L58.33 4.26L58.33 4.26Q58.21 4.37 58.18 5.01L58.18 5.01L58.18 5.01Q58.13 6.02 58.13 7.35L58.13 7.35L58.13 7.35Q58.13 8.05 58.39 8.06L58.39 8.06L58.74 8.06L59.33 8.06L59.77 8.06L59.77 8.06Q60.61 8.06 60.89 8.01L60.89 8.01L60.89 8.01Q61.17 7.95 61.39 7.80L61.39 7.80L61.39 7.80Q61.66 7.62 61.71 7.28L61.71 7.28L61.71 7.28Q61.75 7.04 61.91 7.04L61.91 7.04L61.91 7.04Q62.03 7.04 62.06 7.08L62.06 7.08L62.06 7.08Q62.09 7.13 62.09 7.27L62.09 7.27L62.09 7.27Q62.09 7.36 62.03 7.91L62.03 7.91L62.03 7.91Q61.98 8.46 61.98 8.74L61.98 8.74L61.98 8.74Q61.98 9.00 62.00 9.24L62.00 9.24L62.00 9.24Q62.02 9.48 62.02 9.59L62.02 9.59L62.02 9.59Q62.02 9.94 61.92 9.94L61.92 9.94L61.92 9.94Q61.71 9.94 61.61 9.60L61.61 9.60L61.61 9.60Q61.42 9.02 61.26 8.92L61.26 8.92L61.26 8.92Q60.97 8.72 59.92 8.72L59.92 8.72L59.92 8.72Q59.50 8.72 59.24 8.72L59.24 8.72L59.24 8.72Q58.98 8.72 58.91 8.71L58.91 8.71L58.91 8.71Q58.83 8.71 58.78 8.71L58.78 8.71L58.78 8.71Q58.73 8.71 58.69 8.71L58.69 8.71L58.69 8.71Q58.11 8.71 58.11 8.97L58.11 8.97L58.11 8.97Q58.11 9.38 58.10 9.99L58.10 9.99L58.10 9.99Q58.09 10.60 58.09 10.99L58.09 10.99L58.09 11.55L58.09 11.55Q58.09 12.56 58.42 12.66L58.42 12.66L58.42 12.66Q58.77 12.77 59.02 12.77L59.02 12.77L59.02 12.77Q60.07 12.77 60.87 12.67L60.87 12.67L60.87 12.67Q61.66 12.57 62.06 12.42L62.06 12.42L62.06 12.42Q62.45 12.28 62.72 12.10L62.72 12.10L62.72 12.10Q62.99 11.93 63.06 11.78L63.06 11.78L63.06 11.78Q63.14 11.63 63.22 11.54L63.22 11.54L63.22 11.54Q63.29 11.44 63.38 11.44L63.38 11.44L63.38 11.44Q63.55 11.44 63.55 11.68L63.55 11.68L63.55 11.68Q63.55 12.28 62.94 12.89L62.94 12.89L62.94 12.89Q62.34 13.51 61.89 13.51L61.89 13.51L61.89 13.51Q60.89 13.51 59.62 13.44L59.62 13.44L59.62 13.44Q58.35 13.37 58.04 13.37L58.04 13.37L58.04 13.37Q57.65 13.37 57.06 13.43L57.06 13.43L57.06 13.43Q56.48 13.50 56.14 13.50L56.14 13.50L56.14 13.50Q55.85 13.50 55.85 13.36L55.85 13.36L55.85 13.36Q55.85 13.23 55.85 13.19L55.85 13.19L55.85 13.19Q55.85 13.15 55.89 13.12L55.89 13.12L55.89 13.12Q55.93 13.09 55.98 13.08L55.98 13.08L55.98 13.08Q56.03 13.08 56.16 13.03L56.16 13.03L56.16 13.03Q56.29 12.99 56.45 12.92L56.45 12.92L56.45 12.92Q56.78 12.75 56.89 12.26L56.89 12.26L56.89 12.26Q56.99 11.77 56.99 10.21L56.99 10.21L56.99 8.47L56.99 8.47Q56.99 8.09 57.02 7.29L57.02 7.29L57.02 7.29Q57.04 6.50 57.04 6.05L57.04 6.05L57.04 6.05Q57.04 5.67 57.01 4.77L57.01 4.77L57.01 4.77Q56.99 4.37 56.66 4.14L56.66 4.14L56.66 4.14Q56.32 3.92 55.87 3.91L55.87 3.91L55.87 3.91Q55.65 3.91 55.65 3.65ZM81.09 3.71L81.09 3.71L81.09 3.71Q81.09 3.51 81.47 3.51L81.47 3.51L81.47 3.51Q81.55 3.51 82.01 3.54L82.01 3.54L82.01 3.54Q82.46 3.56 83.01 3.56L83.01 3.56L83.01 3.56Q83.40 3.56 83.79 3.54L83.79 3.54L83.79 3.54Q84.18 3.51 84.21 3.51L84.21 3.51L84.21 3.51Q84.34 3.51 84.37 3.55L84.37 3.55L84.37 3.55Q84.41 3.58 84.41 3.68L84.41 3.68L84.41 3.68Q84.41 3.77 84.11 3.92L84.11 3.92L84.11 3.92Q83.80 4.07 83.80 4.34L83.80 4.34L83.80 4.34Q83.80 4.47 83.86 4.65L83.86 4.65L83.86 4.65Q83.92 4.83 84.08 5.22L84.08 5.22L84.08 5.22Q84.25 5.61 84.44 6.03L84.44 6.03L84.44 6.03Q84.63 6.45 85.02 7.33L85.02 7.33L85.02 7.33Q85.41 8.20 85.79 9.07L85.79 9.07L85.79 9.07Q85.89 9.30 86.08 9.74L86.08 9.74L86.08 9.74Q86.27 10.18 86.39 10.46L86.39 10.46L86.39 10.46Q86.51 10.74 86.65 11.05L86.65 11.05L86.65 11.05Q86.79 11.37 86.88 11.52L86.88 11.52L86.88 11.52Q86.97 11.68 87.01 11.68L87.01 11.68L87.01 11.68Q87.07 11.68 87.46 10.81L87.46 10.81L87.46 10.81Q87.85 9.94 88.16 9.17L88.16 9.17L88.16 9.17Q88.21 9.04 88.29 8.89L88.29 8.89L88.29 8.89Q88.37 8.74 88.40 8.63L88.40 8.63L88.40 8.63Q88.44 8.53 88.44 8.41L88.44 8.41L88.44 8.41Q88.44 8.25 87.60 6.36L87.60 6.36L87.60 6.36Q86.76 4.48 86.52 4.21L86.52 4.21L86.52 4.21Q86.46 4.14 86.41 4.10L86.41 4.10L86.41 4.10Q86.35 4.06 86.30 4.02L86.30 4.02L86.30 4.02Q86.25 3.99 86.22 3.97L86.22 3.97L86.22 3.97Q86.18 3.95 86.13 3.94L86.13 3.94L86.13 3.94Q86.07 3.93 86.05 3.93L86.05 3.93L86.05 3.93Q86.03 3.93 85.97 3.93L85.97 3.93L85.97 3.93Q85.90 3.92 85.89 3.92L85.89 3.92L85.89 3.92Q85.50 3.88 85.41 3.84L85.41 3.84L85.41 3.84Q85.33 3.81 85.33 3.70L85.33 3.70L85.33 3.70Q85.33 3.50 85.74 3.50L85.74 3.50L85.74 3.50Q85.82 3.50 86.28 3.53L86.28 3.53L86.28 3.53Q86.74 3.56 87.28 3.56L87.28 3.56L87.28 3.56Q87.30 3.56 87.65 3.53L87.65 3.53L87.65 3.53Q88.00 3.50 88.20 3.50L88.20 3.50L88.20 3.50Q88.62 3.50 88.62 3.61L88.62 3.61L88.62 3.61Q88.62 3.70 88.47 3.78L88.47 3.78L88.47 3.78Q88.31 3.86 88.17 4.00L88.17 4.00L88.17 4.00Q88.02 4.13 88.02 4.33L88.02 4.33L88.02 4.33Q88.02 4.59 88.45 5.57L88.45 5.57L88.45 5.57Q88.48 5.63 88.64 6.03L88.64 6.03L88.64 6.03Q88.80 6.44 88.93 6.71L88.93 6.71L88.93 6.71Q89.05 6.99 89.11 6.99L89.11 6.99L89.11 6.99Q89.22 6.99 89.67 5.76L89.67 5.76L89.67 5.76Q90.12 4.54 90.12 4.31L90.12 4.31L90.12 4.31Q90.12 4.06 89.91 3.96L89.91 3.96L89.91 3.96Q89.70 3.85 89.49 3.80L89.49 3.80L89.49 3.80Q89.28 3.75 89.28 3.64L89.28 3.64L89.28 3.64Q89.28 3.49 89.59 3.49L89.59 3.49L89.59 3.49Q89.67 3.49 90.01 3.50L90.01 3.50L90.01 3.50Q90.34 3.51 90.48 3.51L90.48 3.51L90.72 3.51L90.72 3.51Q90.92 3.51 91.46 3.47L91.46 3.47L91.59 3.47L91.59 3.47Q91.77 3.47 91.77 3.61L91.77 3.61L91.77 3.61Q91.77 3.75 91.50 3.84L91.50 3.84L91.50 3.84Q91.24 3.92 91.14 4.02L91.14 4.02L91.14 4.02Q90.92 4.24 90.75 4.66L90.75 4.66L90.75 4.66Q90.45 5.38 90.05 6.33L90.05 6.33L90.05 6.33Q89.63 7.31 89.56 7.50L89.56 7.50L89.56 7.50Q89.49 7.70 89.49 7.85L89.49 7.85L89.49 7.85Q89.49 7.97 90.34 9.87L90.34 9.87L90.34 9.87Q91.20 11.77 91.35 11.77L91.35 11.77L91.35 11.77Q91.52 11.77 92.98 8.24L92.98 8.24L92.98 8.24Q94.44 4.70 94.44 4.35L94.44 4.35L94.44 4.35Q94.44 4.13 94.28 4.01L94.28 4.01L94.28 4.01Q94.12 3.89 93.93 3.87L93.93 3.87L93.93 3.87Q93.73 3.85 93.57 3.80L93.57 3.80L93.57 3.80Q93.41 3.75 93.41 3.64L93.41 3.64L93.41 3.64Q93.41 3.54 93.45 3.52L93.45 3.52L93.45 3.52Q93.49 3.50 93.67 3.50L93.67 3.50L93.67 3.50Q93.72 3.50 94.00 3.51L94.00 3.51L94.00 3.51Q94.28 3.51 94.56 3.51L94.56 3.51L94.56 3.51Q94.81 3.51 95.12 3.50L95.12 3.50L95.12 3.50Q95.44 3.49 95.80 3.49L95.80 3.49L95.80 3.49Q96.08 3.49 96.08 3.68L96.08 3.68L96.08 3.68Q96.08 3.78 96.01 3.84L96.01 3.84L96.01 3.84Q95.93 3.89 95.77 3.98L95.77 3.98L95.77 3.98Q95.62 4.06 95.51 4.17L95.51 4.17L95.51 4.17Q95.44 4.24 95.39 4.31L95.39 4.31L95.39 4.31Q95.34 4.38 95.28 4.49L95.28 4.49L95.28 4.49Q95.23 4.59 95.19 4.66L95.19 4.66L95.19 4.66Q95.16 4.73 95.08 4.91L95.08 4.91L95.08 4.91Q95.00 5.08 94.96 5.18L94.96 5.18L94.96 5.18Q93.88 7.59 92.55 10.58L92.55 10.58L92.55 10.58Q91.49 13.01 91.29 13.41L91.29 13.41L91.29 13.41Q91.10 13.82 90.99 13.82L90.99 13.82L90.99 13.82Q90.92 13.82 90.82 13.64L90.82 13.64L90.82 13.64Q90.72 13.47 90.55 13.05L90.55 13.05L90.55 13.05Q90.37 12.64 90.34 12.57L90.34 12.57L90.34 12.57Q90.20 12.26 89.97 11.72L89.97 11.72L89.97 11.72Q89.74 11.17 89.58 10.79L89.58 10.79L89.58 10.79Q89.42 10.42 89.25 10.02L89.25 10.02L89.25 10.02Q89.08 9.63 88.97 9.43L88.97 9.43L88.97 9.43Q88.86 9.23 88.82 9.23L88.82 9.23L88.82 9.23Q88.68 9.23 87.87 11.16L87.87 11.16L87.87 11.16Q87.07 13.09 87.01 13.31L87.01 13.31L87.01 13.31Q87.00 13.37 86.98 13.43L86.98 13.43L86.98 13.43Q86.95 13.48 86.94 13.52L86.94 13.52L86.94 13.52Q86.93 13.57 86.91 13.61L86.91 13.61L86.91 13.61Q86.90 13.65 86.88 13.68L86.88 13.68L86.88 13.68Q86.87 13.71 86.86 13.73L86.86 13.73L86.86 13.73Q86.86 13.76 86.84 13.78L86.84 13.78L86.84 13.78Q86.83 13.80 86.81 13.82L86.81 13.82L86.81 13.82Q86.80 13.83 86.79 13.84L86.79 13.84L86.79 13.84Q86.77 13.85 86.76 13.85L86.76 13.85L86.76 13.85Q86.74 13.86 86.72 13.86L86.72 13.86L86.72 13.86Q86.59 13.86 86.41 13.46L86.41 13.46L86.41 13.46Q86.23 13.06 85.75 11.89L85.75 11.89L85.75 11.89Q85.27 10.72 84.78 9.65L84.78 9.65L84.78 9.65Q83.97 7.87 83.06 5.63L83.06 5.63L83.06 5.63Q82.80 4.96 82.49 4.57L82.49 4.57L82.49 4.57Q82.18 4.19 81.94 4.09L81.94 4.09L81.94 4.09Q81.70 3.99 81.51 3.98L81.51 3.98L81.51 3.98Q81.31 3.96 81.20 3.92L81.20 3.92L81.20 3.92Q81.09 3.88 81.09 3.71ZM103.63 8.69L103.63 8.69L103.63 8.69Q103.63 6.34 105.04 4.84L105.04 4.84L105.04 4.84Q106.46 3.33 109.05 3.33L109.05 3.33L109.05 3.33Q110.25 3.33 111.22 3.68L111.22 3.68L111.22 3.68Q112.18 4.03 112.74 4.54L112.74 4.54L112.74 4.54Q113.30 5.05 113.68 5.71L113.68 5.71L113.68 5.71Q114.06 6.37 114.20 6.92L114.20 6.92L114.20 6.92Q114.34 7.48 114.34 7.95L114.34 7.95L114.34 7.95Q114.34 9.86 113.60 11.16L113.60 11.16L113.60 11.16Q112.85 12.47 111.64 13.07L111.64 13.07L111.64 13.07Q110.43 13.66 108.85 13.66L108.85 13.66L108.85 13.66Q107.18 13.66 105.97 12.94L105.97 12.94L105.97 12.94Q104.76 12.21 104.20 11.10L104.20 11.10L104.20 11.10Q103.63 10.00 103.63 8.69ZM104.86 7.98L104.86 7.98L104.86 7.98Q104.86 8.54 105.01 9.19L105.01 9.19L105.01 9.19Q105.17 9.84 105.52 10.54L105.52 10.54L105.52 10.54Q105.87 11.23 106.37 11.78L106.37 11.78L106.37 11.78Q106.86 12.33 107.63 12.69L107.63 12.69L107.63 12.69Q108.39 13.05 109.30 13.05L109.30 13.05L109.30 13.05Q109.77 13.05 110.30 12.90L110.30 12.90L110.30 12.90Q110.82 12.75 111.34 12.45L111.34 12.45L111.34 12.45Q111.86 12.14 112.27 11.70L112.27 11.70L112.27 11.70Q112.67 11.26 112.93 10.62L112.93 10.62L112.93 10.62Q113.19 9.98 113.19 9.24L113.19 9.24L113.19 9.24Q113.19 6.71 111.86 5.30L111.86 5.30L111.86 5.30Q110.53 3.89 108.57 3.89L108.57 3.89L108.57 3.89Q107.03 3.89 105.95 4.93L105.95 4.93L105.95 4.93Q104.86 5.96 104.86 7.98ZM122.23 3.70L122.23 3.70L122.23 3.70Q122.23 3.47 122.64 3.47L122.64 3.47L124.96 3.47L124.96 3.47Q125.29 3.47 125.71 3.45L125.71 3.45L125.71 3.45Q126.13 3.43 126.36 3.43L126.36 3.43L126.36 3.43Q127.62 3.43 128.52 4.07L128.52 4.07L128.52 4.07Q129.42 4.70 129.42 5.78L129.42 5.78L129.42 5.78Q129.42 6.50 129.14 7.03L129.14 7.03L129.14 7.03Q128.87 7.57 128.54 7.81L128.54 7.81L128.54 7.81Q128.21 8.05 127.94 8.22L127.94 8.22L127.94 8.22Q127.67 8.40 127.67 8.46L127.67 8.46L127.67 8.46Q127.67 8.62 128.84 10.27L128.84 10.27L128.84 10.27Q130.02 11.91 130.45 12.38L130.45 12.38L130.45 12.38Q130.98 13.03 131.74 13.03L131.74 13.03L131.74 13.03Q131.94 13.03 131.94 13.20L131.94 13.20L131.94 13.20Q131.94 13.41 131.77 13.48L131.77 13.48L131.77 13.48Q131.60 13.55 130.90 13.55L130.90 13.55L130.90 13.55Q130.24 13.55 129.70 13.23L129.70 13.23L129.70 13.23Q129.00 12.82 127.33 10.09L127.33 10.09L127.33 10.09Q127.23 9.94 127.19 9.87L127.19 9.87L127.19 9.87Q126.52 8.78 126.15 8.78L126.15 8.78L125.86 8.78L125.01 8.78L125.01 8.78Q124.84 8.78 124.80 8.92L124.80 8.92L124.80 8.92Q124.77 9.06 124.77 9.77L124.77 9.77L124.77 9.77Q124.77 10.44 124.77 10.88L124.77 10.88L124.77 10.88Q124.77 11.31 124.78 11.43L124.78 11.43L124.78 11.43Q124.78 11.55 124.78 11.63L124.78 11.63L124.78 11.63Q124.78 11.70 124.78 11.75L124.78 11.75L124.78 11.75Q124.78 12.32 125.05 12.63L125.05 12.63L125.05 12.63Q125.31 12.95 125.64 13.00L125.64 13.00L125.64 13.00Q125.97 13.05 126.24 13.11L126.24 13.11L126.24 13.11Q126.50 13.17 126.50 13.31L126.50 13.31L126.50 13.31Q126.50 13.54 126.25 13.54L126.25 13.54L126.25 13.54Q126.24 13.54 125.29 13.49L125.29 13.49L125.29 13.49Q124.33 13.44 124.25 13.44L124.25 13.44L124.25 13.44Q123.84 13.44 123.28 13.47L123.28 13.47L123.28 13.47Q122.72 13.50 122.71 13.50L122.71 13.50L122.71 13.50Q122.42 13.50 122.42 13.27L122.42 13.27L122.42 13.27Q122.42 13.12 122.60 13.05L122.60 13.05L122.60 13.05Q122.78 12.99 123.00 12.96L123.00 12.96L123.00 12.96Q123.23 12.94 123.41 12.66L123.41 12.66L123.41 12.66Q123.59 12.38 123.59 11.86L123.59 11.86L123.59 11.86Q123.59 11.49 123.60 9.90L123.60 9.90L123.60 9.90Q123.61 8.30 123.61 7.45L123.61 7.45L123.61 7.45Q123.61 6.58 123.60 5.86L123.60 5.86L123.60 5.86Q123.59 5.14 123.59 5.08L123.59 5.08L123.59 5.08Q123.59 4.56 123.38 4.29L123.38 4.29L123.38 4.29Q123.17 4.02 122.91 3.98L122.91 3.98L122.91 3.98Q122.65 3.95 122.44 3.89L122.44 3.89L122.44 3.89Q122.23 3.84 122.23 3.70ZM124.77 5.54L124.77 5.94L124.77 5.94Q124.77 7.38 124.78 7.72L124.78 7.72L124.78 7.72Q124.80 8.06 124.88 8.12L124.88 8.12L124.88 8.12Q125.09 8.25 125.48 8.25L125.48 8.25L125.62 8.25L126.03 8.25L126.03 8.25Q127.22 8.25 127.73 7.70L127.73 7.70L127.73 7.70Q128.24 7.15 128.24 6.30L128.24 6.30L128.24 6.30Q128.24 5.43 127.56 4.72L127.56 4.72L127.56 4.72Q126.88 4.00 125.51 4.00L125.51 4.00L125.51 4.00Q124.99 4.00 124.88 4.28L124.88 4.28L124.88 4.28Q124.77 4.55 124.77 5.54L124.77 5.54ZM139.29 3.71L139.29 3.71L139.29 3.71Q139.29 3.46 139.66 3.46L139.66 3.46L139.66 3.46Q139.72 3.46 139.85 3.47L139.85 3.47L139.85 3.47Q139.97 3.49 140.04 3.49L140.04 3.49L140.04 3.49Q140.18 3.49 140.57 3.51L140.57 3.51L140.57 3.51Q140.95 3.54 141.26 3.54L141.26 3.54L141.26 3.54Q141.69 3.54 142.18 3.51L142.18 3.51L142.18 3.51Q142.67 3.49 142.73 3.49L142.73 3.49L142.73 3.49Q142.97 3.49 142.97 3.63L142.97 3.63L142.97 3.63Q142.97 3.82 142.80 3.88L142.80 3.88L142.80 3.88Q142.63 3.95 142.43 3.97L142.43 3.97L142.43 3.97Q142.23 3.99 142.04 4.28L142.04 4.28L142.04 4.28Q141.85 4.56 141.82 5.14L141.82 5.14L141.82 5.14Q141.79 5.68 141.75 8.19L141.75 8.19L141.75 8.19Q141.71 10.70 141.71 10.99L141.71 10.99L141.71 11.55L141.71 11.55Q141.71 12.56 142.04 12.66L142.04 12.66L142.04 12.66Q142.39 12.77 142.65 12.77L142.65 12.77L142.65 12.77Q143.70 12.77 144.49 12.67L144.49 12.67L144.49 12.67Q145.28 12.57 145.68 12.42L145.68 12.42L145.68 12.42Q146.08 12.28 146.34 12.10L146.34 12.10L146.34 12.10Q146.61 11.93 146.69 11.78L146.69 11.78L146.69 11.78Q146.76 11.63 146.84 11.54L146.84 11.54L146.84 11.54Q146.92 11.44 147 11.44L147 11.44L147 11.44Q147.17 11.44 147.17 11.68L147.17 11.68L147.17 11.68Q147.17 12.28 146.57 12.89L146.57 12.89L146.57 12.89Q145.96 13.51 145.52 13.51L145.52 13.51L145.52 13.51Q144.51 13.51 143.24 13.44L143.24 13.44L143.24 13.44Q141.97 13.37 141.67 13.37L141.67 13.37L141.67 13.37Q141.27 13.37 140.76 13.43L140.76 13.43L140.76 13.43Q140.25 13.48 139.92 13.48L139.92 13.48L139.92 13.48Q139.51 13.48 139.51 13.31L139.51 13.31L139.51 13.31Q139.51 13.22 139.59 13.15L139.59 13.15L139.59 13.15Q139.66 13.09 139.73 13.09L139.73 13.09L139.73 13.09Q139.94 13.09 140.14 12.95L140.14 12.95L140.14 12.95Q140.39 12.75 140.50 12.23L140.50 12.23L140.50 12.23Q140.62 11.70 140.62 10.21L140.62 10.21L140.62 8.47L140.62 8.47Q140.62 8.09 140.64 7.29L140.64 7.29L140.64 7.29Q140.66 6.50 140.66 6.05L140.66 6.05L140.66 6.05Q140.66 5.67 140.63 4.77L140.63 4.77L140.63 4.77Q140.62 4.37 140.28 4.14L140.28 4.14L140.28 4.14Q139.94 3.92 139.50 3.91L139.50 3.91L139.50 3.91Q139.36 3.91 139.32 3.86L139.32 3.86L139.32 3.86Q139.29 3.81 139.29 3.71ZM154.73 3.64L154.73 3.64L154.73 3.64Q154.73 3.51 154.85 3.49L154.85 3.49L154.85 3.49Q154.97 3.47 155.44 3.47L155.44 3.47L156.66 3.47L156.66 3.47Q157.01 3.47 157.95 3.44L157.95 3.44L157.95 3.44Q158.89 3.42 159.39 3.42L159.39 3.42L159.39 3.42Q160.36 3.42 161.32 3.71L161.32 3.71L161.32 3.71Q162.29 4.00 163.10 4.56L163.10 4.56L163.10 4.56Q163.91 5.11 164.42 6.00L164.42 6.00L164.42 6.00Q164.92 6.89 164.92 7.98L164.92 7.98L164.92 7.98Q164.92 8.96 164.79 9.68L164.79 9.68L164.79 9.68Q164.65 10.40 164.35 10.93L164.35 10.93L164.35 10.93Q164.04 11.45 163.73 11.78L163.73 11.78L163.73 11.78Q163.42 12.11 162.89 12.56L162.89 12.56L162.89 12.56Q162.47 12.89 161.67 13.19L161.67 13.19L161.67 13.19Q160.87 13.48 160.03 13.48L160.03 13.48L160.03 13.48Q159.95 13.48 158.61 13.45L158.61 13.45L158.61 13.45Q157.26 13.41 156.67 13.41L156.67 13.41L156.67 13.41Q156.18 13.41 155.76 13.45L155.76 13.45L155.76 13.45Q155.34 13.48 155.27 13.48L155.27 13.48L155.27 13.48Q154.94 13.48 154.94 13.30L154.94 13.30L154.94 13.30Q154.94 13.19 154.99 13.14L154.99 13.14L154.99 13.14Q155.04 13.09 155.20 13.05L155.20 13.05L155.20 13.05Q155.36 13.01 155.43 12.98L155.43 12.98L155.43 12.98Q155.65 12.88 155.84 12.61L155.84 12.61L155.84 12.61Q156.03 12.33 156.03 12.07L156.03 12.07L156.03 12.07Q156.03 11.28 156.04 10.07L156.04 10.07L156.04 10.07Q156.04 8.85 156.04 8.27L156.04 8.27L156.04 8.27Q156.04 7.77 156.04 6.70L156.04 6.70L156.04 6.70Q156.03 5.63 156.03 4.72L156.03 4.72L156.03 4.72Q156.03 4.48 155.80 4.23L155.80 4.23L155.80 4.23Q155.57 3.99 155.29 3.98L155.29 3.98L155.29 3.98Q155.09 3.96 155.00 3.95L155.00 3.95L155.00 3.95Q154.91 3.93 154.82 3.86L154.82 3.86L154.82 3.86Q154.73 3.78 154.73 3.64ZM157.21 11.47L157.21 11.47L157.21 11.47Q157.21 11.73 157.21 11.90L157.21 11.90L157.21 11.90Q157.22 12.07 157.27 12.21L157.27 12.21L157.27 12.21Q157.32 12.35 157.35 12.40L157.35 12.40L157.35 12.40Q157.37 12.46 157.51 12.53L157.51 12.53L157.51 12.53Q157.65 12.60 157.73 12.62L157.73 12.62L157.73 12.62Q157.81 12.64 158.06 12.71L158.06 12.71L158.06 12.71Q158.31 12.78 158.48 12.82L158.48 12.82L158.48 12.82Q158.97 12.96 159.50 12.96L159.50 12.96L159.78 12.96L159.78 12.96Q160.73 12.96 161.41 12.69L161.41 12.69L161.41 12.69Q162.08 12.42 162.69 11.83L162.69 11.83L162.69 11.83Q163.73 10.84 163.73 8.61L163.73 8.61L163.73 8.61Q163.73 7.49 163.29 6.58L163.29 6.58L163.29 6.58Q162.85 5.67 162.13 5.13L162.13 5.13L162.13 5.13Q161.42 4.59 160.59 4.30L160.59 4.30L160.59 4.30Q159.77 4.02 158.93 4.02L158.93 4.02L158.93 4.02Q158.55 4.02 158.38 4.02L158.38 4.02L158.38 4.02Q158.20 4.02 157.97 4.05L157.97 4.05L157.97 4.05Q157.74 4.09 157.66 4.11L157.66 4.11L157.66 4.11Q157.58 4.13 157.47 4.25L157.47 4.25L157.47 4.25Q157.36 4.37 157.34 4.45L157.34 4.45L157.34 4.45Q157.32 4.54 157.28 4.78L157.28 4.78L157.28 4.78Q157.25 5.03 157.25 5.21L157.25 5.21L157.25 5.21Q157.25 5.39 157.25 5.80L157.25 5.80L157.25 5.80Q157.25 6.10 157.23 7.24L157.23 7.24L157.23 7.24Q157.22 8.39 157.22 8.48L157.22 8.48L157.22 8.48Q157.22 9.32 157.21 10.30L157.21 10.30L157.21 10.30Q157.21 11.28 157.21 11.47ZM182.80 13.33L182.80 13.33L182.80 13.33Q182.80 13.13 183.01 13.06L183.01 13.06L183.01 13.06Q183.46 12.89 183.79 12.31L183.79 12.31L183.79 12.31Q184.13 11.73 185.46 8.83L185.46 8.83L185.46 8.83Q186.83 5.87 187.88 3.63L187.88 3.63L187.88 3.63Q187.98 3.42 188.06 3.36L188.06 3.36L188.06 3.36Q188.13 3.30 188.30 3.30L188.30 3.30L188.30 3.30Q188.43 3.30 188.47 3.36L188.47 3.36L188.47 3.36Q188.51 3.42 188.65 3.82L188.65 3.82L188.65 3.82Q188.73 4.06 188.80 4.23L188.80 4.23L188.80 4.23Q188.86 4.40 189 4.77L189 4.77L189 4.77Q189.14 5.15 189.31 5.56L189.31 5.56L189.31 5.56Q189.76 6.66 190.85 9.22L190.85 9.22L190.85 9.22Q191.95 11.77 192.05 11.98L192.05 11.98L192.05 11.98Q192.29 12.46 192.58 12.71L192.58 12.71L192.58 12.71Q192.88 12.95 193.09 12.97L193.09 12.97L193.09 12.97Q193.31 12.99 193.46 13.04L193.46 13.04L193.46 13.04Q193.61 13.09 193.61 13.26L193.61 13.26L193.61 13.26Q193.61 13.47 193.23 13.47L193.23 13.47L193.23 13.47Q193.07 13.47 192.63 13.43L192.63 13.43L192.63 13.43Q192.18 13.38 191.97 13.38L191.97 13.38L191.97 13.38Q191.70 13.38 191.28 13.41L191.28 13.41L191.28 13.41Q190.86 13.44 190.67 13.44L190.67 13.44L190.67 13.44Q190.23 13.44 190.11 13.40L190.11 13.40L190.11 13.40Q189.99 13.37 189.99 13.24L189.99 13.24L189.99 13.24Q189.99 13.15 190.11 13.08L190.11 13.08L190.11 13.08Q190.22 13.02 190.34 13.00L190.34 13.00L190.34 13.00Q190.47 12.98 190.58 12.87L190.58 12.87L190.58 12.87Q190.69 12.77 190.69 12.59L190.69 12.59L190.69 12.59Q190.69 12.28 190.34 11.33L190.34 11.33L190.34 11.33Q189.99 10.37 189.76 9.93L189.76 9.93L189.76 9.93Q189.63 9.69 189.18 9.69L189.18 9.69L189.18 9.69Q189.11 9.69 188.57 9.70L188.57 9.70L188.57 9.70Q188.02 9.72 187.49 9.72L187.49 9.72L186.75 9.72L186.75 9.72Q186.12 9.72 185.96 9.79L185.96 9.79L185.96 9.79Q185.79 9.86 185.67 10.12L185.67 10.12L185.67 10.12Q185.58 10.30 185.39 10.70L185.39 10.70L185.39 10.70Q185.19 11.10 185.12 11.26L185.12 11.26L185.12 11.26Q185.05 11.41 184.95 11.65L184.95 11.65L184.95 11.65Q184.84 11.90 184.81 12.05L184.81 12.05L184.81 12.05Q184.77 12.19 184.77 12.31L184.77 12.31L184.77 12.31Q184.77 12.63 184.93 12.80L184.93 12.80L184.93 12.80Q185.09 12.96 185.29 12.98L185.29 12.98L185.29 12.98Q185.49 13.01 185.65 13.06L185.65 13.06L185.65 13.06Q185.81 13.12 185.81 13.26L185.81 13.26L185.81 13.26Q185.81 13.36 185.77 13.40L185.77 13.40L185.77 13.40Q185.72 13.45 185.57 13.45L185.57 13.45L185.57 13.45Q185.49 13.45 185.09 13.45L185.09 13.45L185.09 13.45Q184.69 13.44 184.41 13.44L184.41 13.44L184.41 13.44Q184.10 13.44 183.72 13.47L183.72 13.47L183.72 13.47Q183.33 13.50 183.20 13.50L183.20 13.50L183.20 13.50Q182.80 13.50 182.80 13.33ZM186.31 8.71L186.31 8.71L186.31 8.71Q186.31 8.89 186.44 8.93L186.44 8.93L186.44 8.93Q186.56 8.97 187.03 8.97L187.03 8.97L187.46 8.97L188.79 8.96L188.79 8.96Q189.34 8.96 189.34 8.74L189.34 8.74L189.34 8.74Q189.34 8.55 188.65 7.01L188.65 7.01L188.65 7.01Q187.96 5.46 187.78 5.46L187.78 5.46L187.78 5.46Q187.66 5.46 186.98 7.01L186.98 7.01L186.98 7.01Q186.31 8.55 186.31 8.71ZM211.15 3.72L211.15 3.72L211.15 3.72Q211.15 3.51 211.27 3.51L211.27 3.51L211.27 3.51Q211.32 3.51 211.46 3.52L211.46 3.52L211.46 3.52Q211.60 3.53 211.83 3.53L211.83 3.53L211.83 3.53Q212.11 3.53 212.95 3.52L212.95 3.52L212.95 3.52Q213.78 3.51 213.88 3.51L213.88 3.51L213.88 3.51Q214.20 3.51 214.69 3.49L214.69 3.49L214.69 3.49Q215.18 3.47 215.42 3.47L215.42 3.47L215.42 3.47Q216.69 3.47 217.55 4.08L217.55 4.08L217.55 4.08Q218.40 4.69 218.40 5.81L218.40 5.81L218.40 5.81Q218.40 6.22 218.25 6.57L218.25 6.57L218.25 6.57Q218.11 6.93 217.90 7.15L217.90 7.15L217.90 7.15Q217.70 7.38 217.50 7.54L217.50 7.54L217.50 7.54Q217.29 7.70 217.15 7.79L217.15 7.79L217.15 7.79Q217 7.88 217 7.90L217 7.90L217 7.90Q217 7.94 217.24 8.00L217.24 8.00L217.24 8.00Q217.48 8.06 217.81 8.21L217.81 8.21L217.81 8.21Q218.15 8.36 218.48 8.61L218.48 8.61L218.48 8.61Q218.81 8.86 219.04 9.36L219.04 9.36L219.04 9.36Q219.28 9.86 219.28 10.53L219.28 10.53L219.28 10.53Q219.28 11.13 218.93 11.82L218.93 11.82L218.93 11.82Q218.58 12.50 218.11 12.82L218.11 12.82L218.11 12.82Q217.49 13.26 216.96 13.40L216.96 13.40L216.96 13.40Q216.43 13.55 215.67 13.55L215.67 13.55L215.67 13.55Q215.11 13.55 214.19 13.47L214.19 13.47L214.19 13.47Q213.26 13.40 213.16 13.40L213.16 13.40L213.16 13.40Q213.01 13.40 212.61 13.43L212.61 13.43L212.61 13.43Q212.21 13.45 211.96 13.45L211.96 13.45L211.76 13.45L211.76 13.45Q211.47 13.45 211.47 13.24L211.47 13.24L211.47 13.24Q211.47 13.05 211.62 13.05L211.62 13.05L211.62 13.05Q211.71 13.05 211.81 13.04L211.81 13.04L211.81 13.04Q211.90 13.03 211.95 13.03L211.95 13.03L211.95 13.03Q212.07 13.03 212.19 12.94L212.19 12.94L212.19 12.94Q212.31 12.85 212.44 12.54L212.44 12.54L212.44 12.54Q212.56 12.22 212.58 11.73L212.58 11.73L212.58 11.73Q212.62 10.82 212.62 7.36L212.62 7.36L212.62 4.98L212.62 4.98Q212.62 4.89 212.58 4.75L212.58 4.75L212.58 4.75Q212.55 4.62 212.44 4.40L212.44 4.40L212.44 4.40Q212.34 4.19 212.06 4.04L212.06 4.04L212.06 4.04Q211.79 3.89 211.39 3.89L211.39 3.89L211.39 3.89Q211.15 3.89 211.15 3.72ZM213.68 12.15L213.68 12.15L213.68 12.15Q213.68 12.99 215.05 12.99L215.05 12.99L215.38 12.99L215.38 12.99Q216.13 12.99 216.58 12.92L216.58 12.92L216.58 12.92Q217.24 12.81 217.66 12.24L217.66 12.24L217.66 12.24Q218.09 11.66 218.09 10.86L218.09 10.86L218.09 10.86Q218.09 10.18 217.84 9.68L217.84 9.68L217.84 9.68Q217.59 9.18 217.27 8.93L217.27 8.93L217.27 8.93Q216.94 8.68 216.50 8.54L216.50 8.54L216.50 8.54Q216.06 8.40 215.82 8.37L215.82 8.37L215.82 8.37Q215.57 8.34 215.35 8.34L215.35 8.34L215.35 8.34Q214.90 8.34 214.61 8.34L214.61 8.34L214.61 8.34Q214.33 8.33 214.25 8.33L214.25 8.33L214.25 8.33Q214.17 8.33 214.12 8.32L214.12 8.32L214.12 8.32Q214.07 8.32 214.05 8.32L214.05 8.32L214.05 8.32Q213.92 8.32 213.86 8.35L213.86 8.35L213.86 8.35Q213.81 8.39 213.76 8.62L213.76 8.62L213.76 8.62Q213.71 8.85 213.70 9.28L213.70 9.28L213.70 9.28Q213.70 9.72 213.70 10.58L213.70 10.58L213.70 10.70L213.70 10.70Q213.70 11.21 213.70 11.54L213.70 11.54L213.70 11.54Q213.70 11.86 213.69 11.99L213.69 11.99L213.69 11.99Q213.68 12.12 213.68 12.15ZM213.77 5.40L213.77 5.81L213.77 5.81Q213.77 6.51 213.77 6.90L213.77 6.90L213.77 6.90Q213.78 7.29 213.81 7.50L213.81 7.50L213.81 7.50Q213.84 7.71 213.86 7.77L213.86 7.77L213.86 7.77Q213.89 7.83 213.95 7.83L213.95 7.83L213.95 7.83Q214.34 7.87 214.66 7.87L214.66 7.87L215.56 7.87L215.56 7.87Q216.44 7.87 216.88 7.41L216.88 7.41L216.88 7.41Q217.32 6.94 217.32 6.22L217.32 6.22L217.32 6.22Q217.32 5.43 216.59 4.70L216.59 4.70L216.59 4.70Q215.85 3.96 214.49 3.96L214.49 3.96L214.49 3.96Q214.06 3.96 213.91 4.22L213.91 4.22L213.91 4.22Q213.77 4.48 213.77 5.40L213.77 5.40ZM226.97 3.65L226.97 3.65L226.97 3.65Q226.97 3.46 227.36 3.46L227.36 3.46L227.36 3.46Q227.42 3.46 227.54 3.47L227.54 3.47L227.54 3.47Q227.67 3.49 227.74 3.49L227.74 3.49L227.74 3.49Q227.78 3.49 229.05 3.52L229.05 3.52L229.05 3.52Q230.33 3.56 231.15 3.56L231.15 3.56L231.15 3.56Q231.45 3.56 232.60 3.53L232.60 3.53L232.60 3.53Q233.76 3.50 233.95 3.50L233.95 3.50L233.95 3.50Q234.22 3.50 234.22 3.82L234.22 3.82L234.22 3.82Q234.22 3.91 234.14 4.38L234.14 4.38L234.14 4.38Q234.05 4.84 234.05 5.25L234.05 5.25L234.05 5.25Q234.05 5.38 233.98 5.47L233.98 5.47L233.98 5.47Q233.91 5.56 233.83 5.56L233.83 5.56L233.83 5.56Q233.62 5.56 233.62 5.26L233.62 5.26L233.62 5.26Q233.62 4.89 233.38 4.58L233.38 4.58L233.38 4.58Q233.14 4.27 232.79 4.26L232.79 4.26L232.79 4.26Q231.53 4.16 230.86 4.16L230.86 4.16L230.50 4.16L230.50 4.16Q229.77 4.16 229.65 4.26L229.65 4.26L229.65 4.26Q229.53 4.37 229.50 5.01L229.50 5.01L229.50 5.01Q229.45 6.02 229.45 7.35L229.45 7.35L229.45 7.35Q229.45 8.05 229.71 8.06L229.71 8.06L230.06 8.06L230.65 8.06L231.08 8.06L231.08 8.06Q231.92 8.06 232.20 8.01L232.20 8.01L232.20 8.01Q232.48 7.95 232.71 7.80L232.71 7.80L232.71 7.80Q232.97 7.62 233.03 7.28L233.03 7.28L233.03 7.28Q233.07 7.04 233.23 7.04L233.23 7.04L233.23 7.04Q233.35 7.04 233.38 7.08L233.38 7.08L233.38 7.08Q233.41 7.13 233.41 7.27L233.41 7.27L233.41 7.27Q233.41 7.36 233.35 7.91L233.35 7.91L233.35 7.91Q233.30 8.46 233.30 8.74L233.30 8.74L233.30 8.74Q233.30 9.00 233.32 9.24L233.32 9.24L233.32 9.24Q233.34 9.48 233.34 9.59L233.34 9.59L233.34 9.59Q233.34 9.94 233.24 9.94L233.24 9.94L233.24 9.94Q233.03 9.94 232.93 9.60L232.93 9.60L232.93 9.60Q232.74 9.02 232.58 8.92L232.58 8.92L232.58 8.92Q232.29 8.72 231.24 8.72L231.24 8.72L231.24 8.72Q230.82 8.72 230.56 8.72L230.56 8.72L230.56 8.72Q230.30 8.72 230.22 8.71L230.22 8.71L230.22 8.71Q230.15 8.71 230.10 8.71L230.10 8.71L230.10 8.71Q230.05 8.71 230.01 8.71L230.01 8.71L230.01 8.71Q229.43 8.71 229.43 8.97L229.43 8.97L229.43 8.97Q229.43 9.38 229.42 9.99L229.42 9.99L229.42 9.99Q229.40 10.60 229.40 10.99L229.40 10.99L229.40 11.55L229.40 11.55Q229.40 12.56 229.74 12.66L229.74 12.66L229.74 12.66Q230.09 12.77 230.34 12.77L230.34 12.77L230.34 12.77Q231.39 12.77 232.18 12.67L232.18 12.67L232.18 12.67Q232.97 12.57 233.37 12.42L233.37 12.42L233.37 12.42Q233.77 12.28 234.04 12.10L234.04 12.10L234.04 12.10Q234.30 11.93 234.38 11.78L234.38 11.78L234.38 11.78Q234.46 11.63 234.53 11.54L234.53 11.54L234.53 11.54Q234.61 11.44 234.70 11.44L234.70 11.44L234.70 11.44Q234.86 11.44 234.86 11.68L234.86 11.68L234.86 11.68Q234.86 12.28 234.26 12.89L234.26 12.89L234.26 12.89Q233.66 13.51 233.21 13.51L233.21 13.51L233.21 13.51Q232.20 13.51 230.94 13.44L230.94 13.44L230.94 13.44Q229.67 13.37 229.36 13.37L229.36 13.37L229.36 13.37Q228.97 13.37 228.38 13.43L228.38 13.43L228.38 13.43Q227.79 13.50 227.46 13.50L227.46 13.50L227.46 13.50Q227.16 13.50 227.16 13.36L227.16 13.36L227.16 13.36Q227.16 13.23 227.16 13.19L227.16 13.19L227.16 13.19Q227.16 13.15 227.21 13.12L227.21 13.12L227.21 13.12Q227.25 13.09 227.30 13.08L227.30 13.08L227.30 13.08Q227.35 13.08 227.48 13.03L227.48 13.03L227.48 13.03Q227.61 12.99 227.77 12.92L227.77 12.92L227.77 12.92Q228.10 12.75 228.21 12.26L228.21 12.26L228.21 12.26Q228.31 11.77 228.31 10.21L228.31 10.21L228.31 8.47L228.31 8.47Q228.31 8.09 228.33 7.29L228.33 7.29L228.33 7.29Q228.35 6.50 228.35 6.05L228.35 6.05L228.35 6.05Q228.35 5.67 228.33 4.77L228.33 4.77L228.33 4.77Q228.31 4.37 227.98 4.14L227.98 4.14L227.98 4.14Q227.64 3.92 227.19 3.91L227.19 3.91L227.19 3.91Q226.97 3.91 226.97 3.65ZM242.42 5.32L242.42 5.32L242.42 5.32Q242.42 4.76 242.56 3.88L242.56 3.88L242.56 3.88Q242.56 3.85 242.57 3.78L242.57 3.78L242.57 3.78Q242.58 3.71 242.58 3.69L242.58 3.69L242.58 3.69Q242.59 3.67 242.60 3.62L242.60 3.62L242.60 3.62Q242.61 3.57 242.62 3.55L242.62 3.55L242.62 3.55Q242.63 3.53 242.65 3.49L242.65 3.49L242.65 3.49Q242.68 3.46 242.70 3.44L242.70 3.44L242.70 3.44Q242.73 3.43 242.77 3.42L242.77 3.42L242.77 3.42Q242.82 3.40 242.87 3.39L242.87 3.39L242.87 3.39Q242.93 3.39 243.00 3.39L243.00 3.39L243.00 3.39Q243.22 3.39 244.18 3.44L244.18 3.44L244.18 3.44Q245.14 3.50 246.95 3.50L246.95 3.50L246.95 3.50Q250.03 3.50 251.26 3.43L251.26 3.43L251.26 3.43Q251.27 3.43 251.31 3.42L251.31 3.42L251.31 3.42Q251.34 3.42 251.36 3.42L251.36 3.42L251.36 3.42Q251.51 3.42 251.57 3.50L251.57 3.50L251.57 3.50Q251.62 3.58 251.62 3.65L251.62 3.65L251.62 3.65Q251.62 3.75 251.66 4.24L251.66 4.24L251.66 4.24Q251.71 4.73 251.71 4.79L251.71 4.79L251.71 4.79Q251.71 5.14 251.66 5.23L251.66 5.23L251.66 5.23Q251.62 5.32 251.48 5.32L251.48 5.32L251.48 5.32Q251.37 5.32 251.33 5.15L251.33 5.15L251.33 5.15Q251.22 4.75 251.13 4.60L251.13 4.60L251.13 4.60Q251.05 4.45 250.77 4.34L250.77 4.34L250.77 4.34Q250.49 4.23 249.91 4.23L249.91 4.23L248.09 4.23L248.09 4.23Q247.76 4.23 247.68 4.36L247.68 4.36L247.68 4.36Q247.60 4.49 247.60 5.12L247.60 5.12L247.60 5.81L247.60 5.81Q247.60 7.69 247.58 9.11L247.58 9.11L247.58 9.11Q247.56 10.54 247.56 10.93L247.56 10.93L247.56 10.93Q247.56 11.13 247.55 11.43L247.55 11.43L247.55 11.43Q247.55 11.73 247.55 11.84L247.55 11.84L247.55 11.84Q247.55 12.45 247.74 12.64L247.74 12.64L247.74 12.64Q247.93 12.81 248.15 12.90L248.15 12.90L248.15 12.90Q248.37 12.99 248.53 13.01L248.53 13.01L248.53 13.01Q248.70 13.02 248.81 13.08L248.81 13.08L248.81 13.08Q248.92 13.13 248.92 13.26L248.92 13.26L248.92 13.26Q248.92 13.41 248.85 13.45L248.85 13.45L248.85 13.45Q248.78 13.50 248.58 13.50L248.58 13.50L248.58 13.50Q248.42 13.50 247.84 13.44L247.84 13.44L247.84 13.44Q247.27 13.38 247.03 13.38L247.03 13.38L247.03 13.38Q246.86 13.38 246.35 13.43L246.35 13.43L246.35 13.43Q245.84 13.48 245.60 13.48L245.60 13.48L245.60 13.48Q245.08 13.48 245.08 13.26L245.08 13.26L245.08 13.26Q245.08 13.12 245.17 13.07L245.17 13.07L245.17 13.07Q245.25 13.02 245.50 12.98L245.50 12.98L245.50 12.98Q245.74 12.95 245.81 12.94L245.81 12.94L245.81 12.94Q246.29 12.82 246.34 12.38L246.34 12.38L246.34 12.38Q246.48 11.14 246.48 7.08L246.48 7.08L246.47 4.58L246.47 4.58Q246.47 4.31 246.32 4.25L246.32 4.25L246.32 4.25Q246.16 4.19 245.41 4.19L245.41 4.19L245.41 4.19Q244.43 4.19 243.93 4.24L243.93 4.24L243.93 4.24Q243.43 4.30 243.35 4.35L243.35 4.35L243.35 4.35Q243.26 4.40 243.15 4.54L243.15 4.54L243.15 4.54Q243.03 4.70 242.95 4.91L242.95 4.91L242.95 4.91Q242.87 5.11 242.85 5.24L242.85 5.24L242.85 5.24Q242.83 5.38 242.77 5.47L242.77 5.47L242.77 5.47Q242.70 5.56 242.58 5.56L242.58 5.56L242.58 5.56Q242.42 5.56 242.42 5.32ZM259.27 5.32L259.27 5.32L259.27 5.32Q259.27 4.76 259.41 3.88L259.41 3.88L259.41 3.88Q259.41 3.85 259.41 3.78L259.41 3.78L259.41 3.78Q259.42 3.71 259.43 3.69L259.43 3.69L259.43 3.69Q259.43 3.67 259.44 3.62L259.44 3.62L259.44 3.62Q259.45 3.57 259.46 3.55L259.46 3.55L259.46 3.55Q259.48 3.53 259.50 3.49L259.50 3.49L259.50 3.49Q259.52 3.46 259.55 3.44L259.55 3.44L259.55 3.44Q259.57 3.43 259.62 3.42L259.62 3.42L259.62 3.42Q259.66 3.40 259.71 3.39L259.71 3.39L259.71 3.39Q259.77 3.39 259.84 3.39L259.84 3.39L259.84 3.39Q260.06 3.39 261.02 3.44L261.02 3.44L261.02 3.44Q261.98 3.50 263.79 3.50L263.79 3.50L263.79 3.50Q266.87 3.50 268.10 3.43L268.10 3.43L268.10 3.43Q268.11 3.43 268.15 3.42L268.15 3.42L268.15 3.42Q268.18 3.42 268.20 3.42L268.20 3.42L268.20 3.42Q268.35 3.42 268.41 3.50L268.41 3.50L268.41 3.50Q268.46 3.58 268.46 3.65L268.46 3.65L268.46 3.65Q268.46 3.75 268.51 4.24L268.51 4.24L268.51 4.24Q268.55 4.73 268.55 4.79L268.55 4.79L268.55 4.79Q268.55 5.14 268.51 5.23L268.51 5.23L268.51 5.23Q268.46 5.32 268.32 5.32L268.32 5.32L268.32 5.32Q268.21 5.32 268.17 5.15L268.17 5.15L268.17 5.15Q268.06 4.75 267.97 4.60L267.97 4.60L267.97 4.60Q267.89 4.45 267.61 4.34L267.61 4.34L267.61 4.34Q267.33 4.23 266.76 4.23L266.76 4.23L264.94 4.23L264.94 4.23Q264.60 4.23 264.52 4.36L264.52 4.36L264.52 4.36Q264.45 4.49 264.45 5.12L264.45 5.12L264.45 5.81L264.45 5.81Q264.45 7.69 264.43 9.11L264.43 9.11L264.43 9.11Q264.40 10.54 264.40 10.93L264.40 10.93L264.40 10.93Q264.40 11.13 264.40 11.43L264.40 11.43L264.40 11.43Q264.39 11.73 264.39 11.84L264.39 11.84L264.39 11.84Q264.39 12.45 264.59 12.64L264.59 12.64L264.59 12.64Q264.77 12.81 264.99 12.90L264.99 12.90L264.99 12.90Q265.22 12.99 265.38 13.01L265.38 13.01L265.38 13.01Q265.54 13.02 265.65 13.08L265.65 13.08L265.65 13.08Q265.76 13.13 265.76 13.26L265.76 13.26L265.76 13.26Q265.76 13.41 265.69 13.45L265.69 13.45L265.69 13.45Q265.62 13.50 265.43 13.50L265.43 13.50L265.43 13.50Q265.26 13.50 264.68 13.44L264.68 13.44L264.68 13.44Q264.11 13.38 263.87 13.38L263.87 13.38L263.87 13.38Q263.70 13.38 263.19 13.43L263.19 13.43L263.19 13.43Q262.68 13.48 262.44 13.48L262.44 13.48L262.44 13.48Q261.93 13.48 261.93 13.26L261.93 13.26L261.93 13.26Q261.93 13.12 262.01 13.07L262.01 13.07L262.01 13.07Q262.09 13.02 262.34 12.98L262.34 12.98L262.34 12.98Q262.58 12.95 262.65 12.94L262.65 12.94L262.65 12.94Q263.13 12.82 263.19 12.38L263.19 12.38L263.19 12.38Q263.33 11.14 263.33 7.08L263.33 7.08L263.31 4.58L263.31 4.58Q263.31 4.31 263.16 4.25L263.16 4.25L263.16 4.25Q263.00 4.19 262.25 4.19L262.25 4.19L262.25 4.19Q261.27 4.19 260.77 4.24L260.77 4.24L260.77 4.24Q260.27 4.30 260.19 4.35L260.19 4.35L260.19 4.35Q260.11 4.40 259.99 4.54L259.99 4.54L259.99 4.54Q259.87 4.70 259.79 4.91L259.79 4.91L259.79 4.91Q259.71 5.11 259.69 5.24L259.69 5.24L259.69 5.24Q259.67 5.38 259.61 5.47L259.61 5.47L259.61 5.47Q259.55 5.56 259.42 5.56L259.42 5.56L259.42 5.56Q259.27 5.56 259.27 5.32ZM276.11 3.65L276.11 3.65L276.11 3.65Q276.11 3.46 276.50 3.46L276.50 3.46L276.50 3.46Q276.56 3.46 276.68 3.47L276.68 3.47L276.68 3.47Q276.81 3.49 276.88 3.49L276.88 3.49L276.88 3.49Q276.92 3.49 278.19 3.52L278.19 3.52L278.19 3.52Q279.47 3.56 280.29 3.56L280.29 3.56L280.29 3.56Q280.59 3.56 281.74 3.53L281.74 3.53L281.74 3.53Q282.90 3.50 283.09 3.50L283.09 3.50L283.09 3.50Q283.36 3.50 283.36 3.82L283.36 3.82L283.36 3.82Q283.36 3.91 283.28 4.38L283.28 4.38L283.28 4.38Q283.19 4.84 283.19 5.25L283.19 5.25L283.19 5.25Q283.19 5.38 283.12 5.47L283.12 5.47L283.12 5.47Q283.05 5.56 282.97 5.56L282.97 5.56L282.97 5.56Q282.76 5.56 282.76 5.26L282.76 5.26L282.76 5.26Q282.76 4.89 282.52 4.58L282.52 4.58L282.52 4.58Q282.28 4.27 281.93 4.26L281.93 4.26L281.93 4.26Q280.67 4.16 280 4.16L280 4.16L279.64 4.16L279.64 4.16Q278.91 4.16 278.79 4.26L278.79 4.26L278.79 4.26Q278.67 4.37 278.64 5.01L278.64 5.01L278.64 5.01Q278.59 6.02 278.59 7.35L278.59 7.35L278.59 7.35Q278.59 8.05 278.85 8.06L278.85 8.06L279.20 8.06L279.79 8.06L280.22 8.06L280.22 8.06Q281.06 8.06 281.34 8.01L281.34 8.01L281.34 8.01Q281.62 7.95 281.85 7.80L281.85 7.80L281.85 7.80Q282.11 7.62 282.17 7.28L282.17 7.28L282.17 7.28Q282.21 7.04 282.37 7.04L282.37 7.04L282.37 7.04Q282.49 7.04 282.52 7.08L282.52 7.08L282.52 7.08Q282.55 7.13 282.55 7.27L282.55 7.27L282.55 7.27Q282.55 7.36 282.49 7.91L282.49 7.91L282.49 7.91Q282.44 8.46 282.44 8.74L282.44 8.74L282.44 8.74Q282.44 9.00 282.46 9.24L282.46 9.24L282.46 9.24Q282.48 9.48 282.48 9.59L282.48 9.59L282.48 9.59Q282.48 9.94 282.38 9.94L282.38 9.94L282.38 9.94Q282.17 9.94 282.07 9.60L282.07 9.60L282.07 9.60Q281.88 9.02 281.72 8.92L281.72 8.92L281.72 8.92Q281.43 8.72 280.38 8.72L280.38 8.72L280.38 8.72Q279.96 8.72 279.70 8.72L279.70 8.72L279.70 8.72Q279.44 8.72 279.36 8.71L279.36 8.71L279.36 8.71Q279.29 8.71 279.24 8.71L279.24 8.71L279.24 8.71Q279.19 8.71 279.15 8.71L279.15 8.71L279.15 8.71Q278.57 8.71 278.57 8.97L278.57 8.97L278.57 8.97Q278.57 9.38 278.56 9.99L278.56 9.99L278.56 9.99Q278.54 10.60 278.54 10.99L278.54 10.99L278.54 11.55L278.54 11.55Q278.54 12.56 278.88 12.66L278.88 12.66L278.88 12.66Q279.23 12.77 279.48 12.77L279.48 12.77L279.48 12.77Q280.53 12.77 281.32 12.67L281.32 12.67L281.32 12.67Q282.11 12.57 282.51 12.42L282.51 12.42L282.51 12.42Q282.91 12.28 283.18 12.10L283.18 12.10L283.18 12.10Q283.44 11.93 283.52 11.78L283.52 11.78L283.52 11.78Q283.60 11.63 283.67 11.54L283.67 11.54L283.67 11.54Q283.75 11.44 283.84 11.44L283.84 11.44L283.84 11.44Q284.00 11.44 284.00 11.68L284.00 11.68L284.00 11.68Q284.00 12.28 283.40 12.89L283.40 12.89L283.40 12.89Q282.80 13.51 282.35 13.51L282.35 13.51L282.35 13.51Q281.34 13.51 280.08 13.44L280.08 13.44L280.08 13.44Q278.81 13.37 278.50 13.37L278.50 13.37L278.50 13.37Q278.11 13.37 277.52 13.43L277.52 13.43L277.52 13.43Q276.93 13.50 276.60 13.50L276.60 13.50L276.60 13.50Q276.30 13.50 276.30 13.36L276.30 13.36L276.30 13.36Q276.30 13.23 276.30 13.19L276.30 13.19L276.30 13.19Q276.30 13.15 276.35 13.12L276.35 13.12L276.35 13.12Q276.39 13.09 276.44 13.08L276.44 13.08L276.44 13.08Q276.49 13.08 276.62 13.03L276.62 13.03L276.62 13.03Q276.75 12.99 276.91 12.92L276.91 12.92L276.91 12.92Q277.24 12.75 277.35 12.26L277.35 12.26L277.35 12.26Q277.45 11.77 277.45 10.21L277.45 10.21L277.45 8.47L277.45 8.47Q277.45 8.09 277.47 7.29L277.47 7.29L277.47 7.29Q277.49 6.50 277.49 6.05L277.49 6.05L277.49 6.05Q277.49 5.67 277.47 4.77L277.47 4.77L277.47 4.77Q277.45 4.37 277.12 4.14L277.12 4.14L277.12 4.14Q276.78 3.92 276.33 3.91L276.33 3.91L276.33 3.91Q276.11 3.91 276.11 3.65ZM291.56 3.70L291.56 3.70L291.56 3.70Q291.56 3.47 291.97 3.47L291.97 3.47L294.29 3.47L294.29 3.47Q294.62 3.47 295.04 3.45L295.04 3.45L295.04 3.45Q295.46 3.43 295.69 3.43L295.69 3.43L295.69 3.43Q296.95 3.43 297.85 4.07L297.85 4.07L297.85 4.07Q298.75 4.70 298.75 5.78L298.75 5.78L298.75 5.78Q298.75 6.50 298.47 7.03L298.47 7.03L298.47 7.03Q298.20 7.57 297.87 7.81L297.87 7.81L297.87 7.81Q297.54 8.05 297.27 8.22L297.27 8.22L297.27 8.22Q297.00 8.40 297.00 8.46L297.00 8.46L297.00 8.46Q297.00 8.62 298.17 10.27L298.17 10.27L298.17 10.27Q299.35 11.91 299.78 12.38L299.78 12.38L299.78 12.38Q300.31 13.03 301.07 13.03L301.07 13.03L301.07 13.03Q301.27 13.03 301.27 13.20L301.27 13.20L301.27 13.20Q301.27 13.41 301.10 13.48L301.10 13.48L301.10 13.48Q300.93 13.55 300.23 13.55L300.23 13.55L300.23 13.55Q299.57 13.55 299.03 13.23L299.03 13.23L299.03 13.23Q298.33 12.82 296.66 10.09L296.66 10.09L296.66 10.09Q296.56 9.94 296.52 9.87L296.52 9.87L296.52 9.87Q295.85 8.78 295.48 8.78L295.48 8.78L295.19 8.78L294.34 8.78L294.34 8.78Q294.17 8.78 294.13 8.92L294.13 8.92L294.13 8.92Q294.10 9.06 294.10 9.77L294.10 9.77L294.10 9.77Q294.10 10.44 294.10 10.88L294.10 10.88L294.10 10.88Q294.10 11.31 294.11 11.43L294.11 11.43L294.11 11.43Q294.11 11.55 294.11 11.63L294.11 11.63L294.11 11.63Q294.11 11.70 294.11 11.75L294.11 11.75L294.11 11.75Q294.11 12.32 294.38 12.63L294.38 12.63L294.38 12.63Q294.64 12.95 294.97 13.00L294.97 13.00L294.97 13.00Q295.30 13.05 295.57 13.11L295.57 13.11L295.57 13.11Q295.83 13.17 295.83 13.31L295.83 13.31L295.83 13.31Q295.83 13.54 295.58 13.54L295.58 13.54L295.58 13.54Q295.57 13.54 294.62 13.49L294.62 13.49L294.62 13.49Q293.66 13.44 293.58 13.44L293.58 13.44L293.58 13.44Q293.17 13.44 292.61 13.47L292.61 13.47L292.61 13.47Q292.05 13.50 292.04 13.50L292.04 13.50L292.04 13.50Q291.75 13.50 291.75 13.27L291.75 13.27L291.75 13.27Q291.75 13.12 291.93 13.05L291.93 13.05L291.93 13.05Q292.11 12.99 292.33 12.96L292.33 12.96L292.33 12.96Q292.56 12.94 292.74 12.66L292.74 12.66L292.74 12.66Q292.92 12.38 292.92 11.86L292.92 11.86L292.92 11.86Q292.92 11.49 292.93 9.90L292.93 9.90L292.93 9.90Q292.94 8.30 292.94 7.45L292.94 7.45L292.94 7.45Q292.94 6.58 292.93 5.86L292.93 5.86L292.93 5.86Q292.92 5.14 292.92 5.08L292.92 5.08L292.92 5.08Q292.92 4.56 292.71 4.29L292.71 4.29L292.71 4.29Q292.50 4.02 292.24 3.98L292.24 3.98L292.24 3.98Q291.98 3.95 291.77 3.89L291.77 3.89L291.77 3.89Q291.56 3.84 291.56 3.70ZM294.10 5.54L294.10 5.94L294.10 5.94Q294.10 7.38 294.11 7.72L294.11 7.72L294.11 7.72Q294.13 8.06 294.21 8.12L294.21 8.12L294.21 8.12Q294.42 8.25 294.81 8.25L294.81 8.25L294.95 8.25L295.36 8.25L295.36 8.25Q296.55 8.25 297.06 7.70L297.06 7.70L297.06 7.70Q297.57 7.15 297.57 6.30L297.57 6.30L297.57 6.30Q297.57 5.43 296.89 4.72L296.89 4.72L296.89 4.72Q296.21 4.00 294.84 4.00L294.84 4.00L294.84 4.00Q294.32 4.00 294.21 4.28L294.21 4.28L294.21 4.28Q294.10 4.55 294.10 5.54L294.10 5.54ZM318.60 3.72L318.60 3.72L318.60 3.72Q318.60 3.50 318.92 3.50L318.92 3.50L318.92 3.50Q318.96 3.50 319.07 3.49L319.07 3.49L319.07 3.49Q319.19 3.49 319.44 3.49L319.44 3.49L319.44 3.49Q319.51 3.49 319.82 3.51L319.82 3.51L319.82 3.51Q320.14 3.53 320.28 3.53L320.28 3.53L320.28 3.53Q320.59 3.53 321.47 3.51L321.47 3.51L321.47 3.51Q322.35 3.49 322.59 3.49L322.59 3.49L322.59 3.49Q323.90 3.49 324.86 4.15L324.86 4.15L324.86 4.15Q325.81 4.82 325.81 6.06L325.81 6.06L325.81 6.06Q325.81 6.75 325.56 7.29L325.56 7.29L325.56 7.29Q325.30 7.83 324.95 8.13L324.95 8.13L324.95 8.13Q324.59 8.44 324.15 8.64L324.15 8.64L324.15 8.64Q323.71 8.85 323.37 8.91L323.37 8.91L323.37 8.91Q323.02 8.97 322.76 8.97L322.76 8.97L322.76 8.97Q322.31 8.97 321.85 8.87L321.85 8.87L321.85 8.87Q321.38 8.76 321.38 8.65L321.38 8.65L321.38 8.65Q321.38 8.44 321.57 8.44L321.57 8.44L321.57 8.44Q321.64 8.44 321.85 8.50L321.85 8.50L321.85 8.50Q322.07 8.55 322.28 8.55L322.28 8.55L322.28 8.55Q322.60 8.55 322.97 8.46L322.97 8.46L322.97 8.46Q323.33 8.37 323.72 8.17L323.72 8.17L323.72 8.17Q324.11 7.97 324.37 7.55L324.37 7.55L324.37 7.55Q324.62 7.14 324.62 6.59L324.62 6.59L324.62 6.59Q324.62 5.66 323.86 4.85L323.86 4.85L323.86 4.85Q323.11 4.05 321.78 4.05L321.78 4.05L321.78 4.05Q321.34 4.05 321.19 4.30L321.19 4.30L321.19 4.30Q321.03 4.56 321.03 5.47L321.03 5.47L321.03 5.47Q321.03 8.39 321.02 8.80L321.02 8.80L321.02 8.80Q321.01 9.21 321.01 11.26L321.01 11.26L321.01 11.26Q321.01 12.49 321.58 12.87L321.58 12.87L321.58 12.87Q321.73 12.96 321.97 12.99L321.97 12.99L321.97 12.99Q322.20 13.02 322.35 13.01L322.35 13.01L322.35 13.01Q322.50 13.01 322.62 13.07L322.62 13.07L322.62 13.07Q322.74 13.13 322.74 13.30L322.74 13.30L322.74 13.30Q322.74 13.54 322.42 13.54L322.42 13.54L322.42 13.54Q322.10 13.54 321.29 13.50L321.29 13.50L321.29 13.50Q320.47 13.47 320.42 13.47L320.42 13.47L320.42 13.47Q320.28 13.47 319.87 13.50L319.87 13.50L319.87 13.50Q319.45 13.52 319.12 13.52L319.12 13.52L319.12 13.52Q318.68 13.52 318.68 13.37L318.68 13.37L318.68 13.37Q318.68 13.29 318.70 13.23L318.70 13.23L318.70 13.23Q318.72 13.17 318.75 13.14L318.75 13.14L318.75 13.14Q318.77 13.10 318.84 13.08L318.84 13.08L318.84 13.08Q318.91 13.05 318.93 13.03L318.93 13.03L318.93 13.03Q318.96 13.02 319.07 13.00L319.07 13.00L319.07 13.00Q319.17 12.98 319.21 12.96L319.21 12.96L319.21 12.96Q319.24 12.95 319.30 12.94L319.30 12.94L319.30 12.94Q319.35 12.94 319.38 12.93L319.38 12.93L319.38 12.93Q319.40 12.92 319.45 12.89L319.45 12.89L319.45 12.89Q319.49 12.85 319.52 12.79L319.52 12.79L319.52 12.79Q319.55 12.73 319.60 12.62L319.60 12.62L319.60 12.62Q319.65 12.52 319.70 12.35L319.70 12.35L319.70 12.35Q319.80 12.08 319.86 10.25L319.86 10.25L319.86 10.25Q319.91 8.41 319.91 7.41L319.91 7.41L319.91 7.41Q319.91 6.54 319.91 5.80L319.91 5.80L319.91 5.80Q319.90 5.07 319.90 5.03L319.90 5.03L319.90 5.03Q319.90 4.65 319.66 4.28L319.66 4.28L319.66 4.28Q319.42 3.91 318.88 3.91L318.88 3.91L318.88 3.91Q318.60 3.91 318.60 3.72ZM333.49 3.71L333.49 3.71L333.49 3.71Q333.49 3.46 333.87 3.46L333.87 3.46L333.87 3.46Q333.93 3.46 334.05 3.47L334.05 3.47L334.05 3.47Q334.18 3.49 334.25 3.49L334.25 3.49L334.25 3.49Q334.39 3.49 334.78 3.51L334.78 3.51L334.78 3.51Q335.16 3.54 335.47 3.54L335.47 3.54L335.47 3.54Q335.90 3.54 336.39 3.51L336.39 3.51L336.39 3.51Q336.88 3.49 336.94 3.49L336.94 3.49L336.94 3.49Q337.18 3.49 337.18 3.63L337.18 3.63L337.18 3.63Q337.18 3.82 337.01 3.88L337.01 3.88L337.01 3.88Q336.84 3.95 336.64 3.97L336.64 3.97L336.64 3.97Q336.43 3.99 336.25 4.28L336.25 4.28L336.25 4.28Q336.06 4.56 336.03 5.14L336.03 5.14L336.03 5.14Q336.00 5.68 335.96 8.19L335.96 8.19L335.96 8.19Q335.92 10.70 335.92 10.99L335.92 10.99L335.92 11.55L335.92 11.55Q335.92 12.56 336.25 12.66L336.25 12.66L336.25 12.66Q336.60 12.77 336.85 12.77L336.85 12.77L336.85 12.77Q337.90 12.77 338.70 12.67L338.70 12.67L338.70 12.67Q339.49 12.57 339.89 12.42L339.89 12.42L339.89 12.42Q340.28 12.28 340.55 12.10L340.55 12.10L340.55 12.10Q340.82 11.93 340.89 11.78L340.89 11.78L340.89 11.78Q340.97 11.63 341.05 11.54L341.05 11.54L341.05 11.54Q341.12 11.44 341.21 11.44L341.21 11.44L341.21 11.44Q341.38 11.44 341.38 11.68L341.38 11.68L341.38 11.68Q341.38 12.28 340.77 12.89L340.77 12.89L340.77 12.89Q340.17 13.51 339.72 13.51L339.72 13.51L339.72 13.51Q338.72 13.51 337.45 13.44L337.45 13.44L337.45 13.44Q336.18 13.37 335.87 13.37L335.87 13.37L335.87 13.37Q335.48 13.37 334.97 13.43L334.97 13.43L334.97 13.43Q334.46 13.48 334.12 13.48L334.12 13.48L334.12 13.48Q333.72 13.48 333.72 13.31L333.72 13.31L333.72 13.31Q333.72 13.22 333.80 13.15L333.80 13.15L333.80 13.15Q333.87 13.09 333.94 13.09L333.94 13.09L333.94 13.09Q334.15 13.09 334.35 12.95L334.35 12.95L334.35 12.95Q334.60 12.75 334.71 12.23L334.71 12.23L334.71 12.23Q334.82 11.70 334.82 10.21L334.82 10.21L334.82 8.47L334.82 8.47Q334.82 8.09 334.85 7.29L334.85 7.29L334.85 7.29Q334.87 6.50 334.87 6.05L334.87 6.05L334.87 6.05Q334.87 5.67 334.84 4.77L334.84 4.77L334.84 4.77Q334.82 4.37 334.49 4.14L334.49 4.14L334.49 4.14Q334.15 3.92 333.70 3.91L333.70 3.91L333.70 3.91Q333.56 3.91 333.53 3.86L333.53 3.86L333.53 3.86Q333.49 3.81 333.49 3.71ZM348.94 13.33L348.94 13.33L348.94 13.33Q348.94 13.13 349.15 13.06L349.15 13.06L349.15 13.06Q349.59 12.89 349.93 12.31L349.93 12.31L349.93 12.31Q350.27 11.73 351.60 8.83L351.60 8.83L351.60 8.83Q352.97 5.87 354.02 3.63L354.02 3.63L354.02 3.63Q354.12 3.42 354.19 3.36L354.19 3.36L354.19 3.36Q354.27 3.30 354.44 3.30L354.44 3.30L354.44 3.30Q354.56 3.30 354.61 3.36L354.61 3.36L354.61 3.36Q354.65 3.42 354.79 3.82L354.79 3.82L354.79 3.82Q354.87 4.06 354.94 4.23L354.94 4.23L354.94 4.23Q355.00 4.40 355.14 4.77L355.14 4.77L355.14 4.77Q355.28 5.15 355.45 5.56L355.45 5.56L355.45 5.56Q355.89 6.66 356.99 9.22L356.99 9.22L356.99 9.22Q358.09 11.77 358.19 11.98L358.19 11.98L358.19 11.98Q358.43 12.46 358.72 12.71L358.72 12.71L358.72 12.71Q359.02 12.95 359.23 12.97L359.23 12.97L359.23 12.97Q359.45 12.99 359.60 13.04L359.60 13.04L359.60 13.04Q359.74 13.09 359.74 13.26L359.74 13.26L359.74 13.26Q359.74 13.47 359.37 13.47L359.37 13.47L359.37 13.47Q359.21 13.47 358.76 13.43L358.76 13.43L358.76 13.43Q358.32 13.38 358.11 13.38L358.11 13.38L358.11 13.38Q357.84 13.38 357.42 13.41L357.42 13.41L357.42 13.41Q357.00 13.44 356.80 13.44L356.80 13.44L356.80 13.44Q356.37 13.44 356.25 13.40L356.25 13.40L356.25 13.40Q356.13 13.37 356.13 13.24L356.13 13.24L356.13 13.24Q356.13 13.15 356.24 13.08L356.24 13.08L356.24 13.08Q356.36 13.02 356.48 13.00L356.48 13.00L356.48 13.00Q356.61 12.98 356.72 12.87L356.72 12.87L356.72 12.87Q356.83 12.77 356.83 12.59L356.83 12.59L356.83 12.59Q356.83 12.28 356.48 11.33L356.48 11.33L356.48 11.33Q356.13 10.37 355.89 9.93L355.89 9.93L355.89 9.93Q355.77 9.69 355.32 9.69L355.32 9.69L355.32 9.69Q355.25 9.69 354.70 9.70L354.70 9.70L354.70 9.70Q354.16 9.72 353.63 9.72L353.63 9.72L352.88 9.72L352.88 9.72Q352.25 9.72 352.09 9.79L352.09 9.79L352.09 9.79Q351.93 9.86 351.81 10.12L351.81 10.12L351.81 10.12Q351.72 10.30 351.53 10.70L351.53 10.70L351.53 10.70Q351.33 11.10 351.26 11.26L351.26 11.26L351.26 11.26Q351.19 11.41 351.09 11.65L351.09 11.65L351.09 11.65Q350.98 11.90 350.95 12.05L350.95 12.05L350.95 12.05Q350.91 12.19 350.91 12.31L350.91 12.31L350.91 12.31Q350.91 12.63 351.07 12.80L351.07 12.80L351.07 12.80Q351.23 12.96 351.43 12.98L351.43 12.98L351.43 12.98Q351.62 13.01 351.79 13.06L351.79 13.06L351.79 13.06Q351.95 13.12 351.95 13.26L351.95 13.26L351.95 13.26Q351.95 13.36 351.90 13.40L351.90 13.40L351.90 13.40Q351.86 13.45 351.71 13.45L351.71 13.45L351.71 13.45Q351.62 13.45 351.23 13.45L351.23 13.45L351.23 13.45Q350.83 13.44 350.55 13.44L350.55 13.44L350.55 13.44Q350.24 13.44 349.85 13.47L349.85 13.47L349.85 13.47Q349.47 13.50 349.34 13.50L349.34 13.50L349.34 13.50Q348.94 13.50 348.94 13.33ZM352.45 8.71L352.45 8.71L352.45 8.71Q352.45 8.89 352.58 8.93L352.58 8.93L352.58 8.93Q352.70 8.97 353.16 8.97L353.16 8.97L353.60 8.97L354.93 8.96L354.93 8.96Q355.47 8.96 355.47 8.74L355.47 8.74L355.47 8.74Q355.47 8.55 354.79 7.01L354.79 7.01L354.79 7.01Q354.10 5.46 353.92 5.46L353.92 5.46L353.92 5.46Q353.79 5.46 353.12 7.01L353.12 7.01L353.12 7.01Q352.45 8.55 352.45 8.71ZM366.95 8.90L366.95 8.90L366.95 8.90Q366.95 7.38 367.54 6.16L367.54 6.16L367.54 6.16Q368.13 4.94 369.36 4.19L369.36 4.19L369.36 4.19Q370.58 3.44 372.26 3.44L372.26 3.44L372.26 3.44Q373.11 3.44 373.98 3.70L373.98 3.70L373.98 3.70Q374.85 3.95 375.37 4.20L375.37 4.20L375.89 4.47L375.89 4.47Q375.93 4.47 376.03 4.40L376.03 4.40L376.03 4.40Q376.12 4.33 376.18 4.33L376.18 4.33L376.18 4.33Q376.25 4.33 376.32 4.38L376.32 4.38L376.32 4.38Q376.39 4.44 376.39 4.55L376.39 4.55L376.39 4.55Q376.40 4.96 376.45 5.41L376.45 5.41L376.45 5.41Q376.50 5.87 376.54 6.16L376.54 6.16L376.54 6.16Q376.59 6.45 376.59 6.51L376.59 6.51L376.59 6.51Q376.59 6.76 376.42 6.76L376.42 6.76L376.42 6.76Q376.29 6.76 376.18 6.57L376.18 6.57L376.18 6.57Q374.82 4.02 372.26 4.02L372.26 4.02L372.26 4.02Q370.51 4.02 369.39 5.14L369.39 5.14L369.39 5.14Q368.27 6.26 368.27 8.06L368.27 8.06L368.27 8.06Q368.27 9.06 368.53 9.93L368.53 9.93L368.53 9.93Q368.79 10.79 369.31 11.51L369.31 11.51L369.31 11.51Q369.84 12.24 370.76 12.66L370.76 12.66L370.76 12.66Q371.69 13.08 372.92 13.08L372.92 13.08L372.92 13.08Q374.93 13.08 376.31 10.98L376.31 10.98L376.31 10.98Q376.36 10.88 376.52 10.88L376.52 10.88L376.52 10.88Q376.64 10.88 376.64 11.07L376.64 11.07L376.64 11.07Q376.64 11.23 376.59 11.49L376.59 11.49L376.59 11.49Q376.54 11.75 376.47 12.06L376.47 12.06L376.47 12.06Q376.40 12.38 376.39 12.45L376.39 12.45L376.39 12.45Q376.36 12.60 376.17 12.70L376.17 12.70L376.17 12.70Q375.41 13.06 374.98 13.24L374.98 13.24L374.98 13.24Q374.56 13.43 373.90 13.57L373.90 13.57L373.90 13.57Q373.24 13.72 372.55 13.72L372.55 13.72L372.55 13.72Q371.34 13.72 370.36 13.43L370.36 13.43L370.36 13.43Q369.38 13.13 368.75 12.66L368.75 12.66L368.75 12.66Q368.13 12.18 367.71 11.54L367.71 11.54L367.71 11.54Q367.29 10.91 367.12 10.25L367.12 10.25L367.12 10.25Q366.95 9.60 366.95 8.90ZM384.92 3.65L384.92 3.65L384.92 3.65Q384.92 3.46 385.31 3.46L385.31 3.46L385.31 3.46Q385.36 3.46 385.49 3.47L385.49 3.47L385.49 3.47Q385.62 3.49 385.69 3.49L385.69 3.49L385.69 3.49Q385.73 3.49 387.00 3.52L387.00 3.52L387.00 3.52Q388.28 3.56 389.10 3.56L389.10 3.56L389.10 3.56Q389.40 3.56 390.55 3.53L390.55 3.53L390.55 3.53Q391.71 3.50 391.90 3.50L391.90 3.50L391.90 3.50Q392.17 3.50 392.17 3.82L392.17 3.82L392.17 3.82Q392.17 3.91 392.08 4.38L392.08 4.38L392.08 4.38Q392.00 4.84 392.00 5.25L392.00 5.25L392.00 5.25Q392.00 5.38 391.93 5.47L391.93 5.47L391.93 5.47Q391.86 5.56 391.78 5.56L391.78 5.56L391.78 5.56Q391.57 5.56 391.57 5.26L391.57 5.26L391.57 5.26Q391.57 4.89 391.33 4.58L391.33 4.58L391.33 4.58Q391.09 4.27 390.74 4.26L390.74 4.26L390.74 4.26Q389.48 4.16 388.81 4.16L388.81 4.16L388.44 4.16L388.44 4.16Q387.72 4.16 387.60 4.26L387.60 4.26L387.60 4.26Q387.48 4.37 387.45 5.01L387.45 5.01L387.45 5.01Q387.39 6.02 387.39 7.35L387.39 7.35L387.39 7.35Q387.39 8.05 387.66 8.06L387.66 8.06L388.01 8.06L388.60 8.06L389.03 8.06L389.03 8.06Q389.87 8.06 390.15 8.01L390.15 8.01L390.15 8.01Q390.43 7.95 390.66 7.80L390.66 7.80L390.66 7.80Q390.92 7.62 390.98 7.28L390.98 7.28L390.98 7.28Q391.02 7.04 391.17 7.04L391.17 7.04L391.17 7.04Q391.30 7.04 391.33 7.08L391.33 7.08L391.33 7.08Q391.36 7.13 391.36 7.27L391.36 7.27L391.36 7.27Q391.36 7.36 391.30 7.91L391.30 7.91L391.30 7.91Q391.24 8.46 391.24 8.74L391.24 8.74L391.24 8.74Q391.24 9.00 391.27 9.24L391.27 9.24L391.27 9.24Q391.29 9.48 391.29 9.59L391.29 9.59L391.29 9.59Q391.29 9.94 391.19 9.94L391.19 9.94L391.19 9.94Q390.98 9.94 390.88 9.60L390.88 9.60L390.88 9.60Q390.68 9.02 390.53 8.92L390.53 8.92L390.53 8.92Q390.24 8.72 389.19 8.72L389.19 8.72L389.19 8.72Q388.77 8.72 388.51 8.72L388.51 8.72L388.51 8.72Q388.25 8.72 388.17 8.71L388.17 8.71L388.17 8.71Q388.09 8.71 388.05 8.71L388.05 8.71L388.05 8.71Q388.00 8.71 387.95 8.71L387.95 8.71L387.95 8.71Q387.38 8.71 387.38 8.97L387.38 8.97L387.38 8.97Q387.38 9.38 387.37 9.99L387.37 9.99L387.37 9.99Q387.35 10.60 387.35 10.99L387.35 10.99L387.35 11.55L387.35 11.55Q387.35 12.56 387.69 12.66L387.69 12.66L387.69 12.66Q388.04 12.77 388.29 12.77L388.29 12.77L388.29 12.77Q389.34 12.77 390.13 12.67L390.13 12.67L390.13 12.67Q390.92 12.57 391.32 12.42L391.32 12.42L391.32 12.42Q391.72 12.28 391.99 12.10L391.99 12.10L391.99 12.10Q392.25 11.93 392.33 11.78L392.33 11.78L392.33 11.78Q392.41 11.63 392.48 11.54L392.48 11.54L392.48 11.54Q392.56 11.44 392.64 11.44L392.64 11.44L392.64 11.44Q392.81 11.44 392.81 11.68L392.81 11.68L392.81 11.68Q392.81 12.28 392.21 12.89L392.21 12.89L392.21 12.89Q391.61 13.51 391.16 13.51L391.16 13.51L391.16 13.51Q390.15 13.51 388.89 13.44L388.89 13.44L388.89 13.44Q387.62 13.37 387.31 13.37L387.31 13.37L387.31 13.37Q386.92 13.37 386.33 13.43L386.33 13.43L386.33 13.43Q385.74 13.50 385.41 13.50L385.41 13.50L385.41 13.50Q385.11 13.50 385.11 13.36L385.11 13.36L385.11 13.36Q385.11 13.23 385.11 13.19L385.11 13.19L385.11 13.19Q385.11 13.15 385.15 13.12L385.15 13.12L385.15 13.12Q385.20 13.09 385.25 13.08L385.25 13.08L385.25 13.08Q385.29 13.08 385.43 13.03L385.43 13.03L385.43 13.03Q385.56 12.99 385.71 12.92L385.71 12.92L385.71 12.92Q386.05 12.75 386.16 12.26L386.16 12.26L386.16 12.26Q386.26 11.77 386.26 10.21L386.26 10.21L386.26 8.47L386.26 8.47Q386.26 8.09 386.28 7.29L386.28 7.29L386.28 7.29Q386.30 6.50 386.30 6.05L386.30 6.05L386.30 6.05Q386.30 5.67 386.27 4.77L386.27 4.77L386.27 4.77Q386.26 4.37 385.92 4.14L385.92 4.14L385.92 4.14Q385.59 3.92 385.14 3.91L385.14 3.91L385.14 3.91Q384.92 3.91 384.92 3.65Z"></path></g></svg>