<svg data-v-423bf9ae="" xmlns="http://www.w3.org/2000/svg" viewBox="0 0 524.1980326360558 60" class="font"><!----><!----><!----><g data-v-423bf9ae="" id="4a7ffb71-0f1c-4f71-a2d5-8ec52edfb6ff" fill="white" transform="matrix(5.940593719482422,0,0,5.940593719482422,0.05941428616642952,-43.12871170043945)"><path d="M4.53 11.73L4.53 11.73L3.75 12.24L3.58 12.15L3.58 12.15Q3.51 11.05 2.67 11.05L2.67 11.05L2.67 11.05Q2.18 11.05 1.85 11.38L1.85 11.38L1.85 11.38Q1.52 11.70 1.52 12.19L1.52 12.19L1.52 12.19Q1.52 12.59 1.89 12.89L1.89 12.89L1.89 12.89Q2.26 13.19 3.07 13.54L3.07 13.54L3.07 13.54Q3.89 13.89 4.28 14.28L4.28 14.28L4.28 14.28Q4.68 14.67 4.68 15.16L4.68 15.16L4.68 15.16Q4.68 15.67 4.44 16.09L4.44 16.09L4.44 16.09Q4.20 16.52 3.82 16.78L3.82 16.78L3.82 16.78Q3.44 17.04 2.98 17.19L2.98 17.19L2.98 17.19Q2.52 17.33 2.04 17.33L2.04 17.33L2.04 17.33Q0.60 17.33-0.01 16.17L-0.01 16.17L0.67 15.17L0.87 15.18L0.87 15.18Q0.91 15.85 1.36 16.32L1.36 16.32L1.36 16.32Q1.81 16.80 2.46 16.80L2.46 16.80L2.46 16.80Q2.91 16.80 3.28 16.47L3.28 16.47L3.28 16.47Q3.66 16.15 3.66 15.73L3.66 15.73L3.66 15.73Q3.66 15.48 3.54 15.26L3.54 15.26L3.54 15.26Q3.42 15.05 3.20 14.88L3.20 14.88L3.20 14.88Q2.98 14.71 2.77 14.60L2.77 14.60L2.77 14.60Q2.56 14.49 2.27 14.36L2.27 14.36L2.27 14.36Q1.90 14.21 1.62 14.05L1.62 14.05L1.62 14.05Q1.33 13.90 1.07 13.68L1.07 13.68L1.07 13.68Q0.81 13.46 0.66 13.18L0.66 13.18L0.66 13.18Q0.52 12.89 0.52 12.56L0.52 12.56L0.52 12.56Q0.52 11.96 0.89 11.49L0.89 11.49L0.89 11.49Q1.25 11.03 1.80 10.80L1.80 10.80L1.80 10.80Q2.34 10.57 2.94 10.57L2.94 10.57L2.94 10.57Q3.56 10.57 4.03 10.86L4.03 10.86L4.03 10.86Q4.50 11.14 4.53 11.73ZM7.01 12.67L7.01 12.67L7.01 12.67Q6.90 13.13 6.90 13.75L6.90 13.75L6.90 13.75Q6.90 14.14 6.95 14.51L6.95 14.51L6.95 14.51Q7 14.89 7.13 15.30L7.13 15.30L7.13 15.30Q7.27 15.71 7.47 16.01L7.47 16.01L7.47 16.01Q7.67 16.32 8.01 16.52L8.01 16.52L8.01 16.52Q8.35 16.71 8.79 16.71L8.79 16.71L8.79 16.71Q9.23 16.71 9.56 16.54L9.56 16.54L9.56 16.54Q9.89 16.37 10.09 16.10L10.09 16.10L10.09 16.10Q10.29 15.83 10.41 15.46L10.41 15.46L10.41 15.46Q10.53 15.09 10.58 14.74L10.58 14.74L10.58 14.74Q10.62 14.39 10.62 14.01L10.62 14.01L10.62 14.01Q10.62 13.62 10.59 13.26L10.59 13.26L10.59 13.26Q10.55 12.91 10.43 12.50L10.43 12.50L10.43 12.50Q10.31 12.10 10.11 11.81L10.11 11.81L10.11 11.81Q9.92 11.52 9.57 11.32L9.57 11.32L9.57 11.32Q9.23 11.13 8.78 11.13L8.78 11.13L8.78 11.13Q8.18 11.13 7.69 11.53L7.69 11.53L7.69 11.53Q7.20 11.92 7.01 12.67ZM8.42 17.29L8.42 17.29L8.42 17.29Q7.72 17.29 7.19 17.04L7.19 17.04L7.19 17.04Q6.67 16.80 6.36 16.37L6.36 16.37L6.36 16.37Q6.06 15.94 5.90 15.44L5.90 15.44L5.90 15.44Q5.74 14.94 5.70 14.35L5.70 14.35L5.70 14.35Q5.70 13.47 5.85 12.79L5.85 12.79L5.85 12.79Q6.01 12.11 6.47 11.61L6.47 11.61L6.47 11.61Q6.94 11.09 7.63 10.84L7.63 10.84L7.63 10.84Q8.33 10.58 9.10 10.58L9.10 10.58L9.10 10.58Q9.84 10.58 10.39 10.85L10.39 10.85L10.39 10.85Q10.95 11.12 11.26 11.58L11.26 11.58L11.26 11.58Q11.57 12.04 11.72 12.59L11.72 12.59L11.72 12.59Q11.87 13.13 11.87 13.75L11.87 13.75L11.87 13.75Q11.87 15.36 11.06 16.26L11.06 16.26L11.06 16.26Q10.60 16.79 9.90 17.04L9.90 17.04L9.90 17.04Q9.21 17.29 8.42 17.29ZM12.23 11.09L12.33 11.01L13.79 11.01L13.88 10.93L13.88 10.93Q13.88 9.79 14.14 9.22L14.14 9.22L14.14 9.22Q14.44 8.50 15.02 8.11L15.02 8.11L15.02 8.11Q15.60 7.72 16.28 7.72L16.28 7.72L16.28 7.72Q17.21 7.72 17.58 8.48L17.58 8.48L16.77 9.24L16.60 9.18L16.60 9.18Q16.57 9.04 16.55 8.97L16.55 8.97L16.55 8.97Q16.54 8.89 16.47 8.74L16.47 8.74L16.47 8.74Q16.41 8.59 16.34 8.51L16.34 8.51L16.34 8.51Q16.26 8.43 16.12 8.36L16.12 8.36L16.12 8.36Q15.97 8.29 15.78 8.29L15.78 8.29L15.78 8.29Q15.36 8.29 15.15 9.03L15.15 9.03L15.15 9.03Q14.94 9.77 14.94 10.93L14.94 10.93L15.00 11.01L16.73 11.01L16.81 11.12L16.71 11.42L16.61 11.50L15.00 11.50L14.92 11.59L14.92 13.14L14.92 13.14Q14.92 15.22 15.06 16.92L15.06 16.92L13.95 17.26L13.71 17.10L13.71 17.10Q13.90 14.43 13.90 13.13L13.90 13.13L13.90 11.61L13.81 11.50L12.24 11.50L12.17 11.41L12.23 11.09ZM18.05 8.94L18.05 8.94L19.23 8.54L19.33 8.61L19.33 8.61Q19.19 10.23 19.17 10.93L19.17 10.93L19.26 11.00L21.05 11.00L21.12 11.05L21.01 11.42L20.92 11.49L19.26 11.49L19.17 11.57L19.17 14.22L19.17 14.22Q19.17 14.65 19.21 14.97L19.21 14.97L19.21 14.97Q19.24 15.30 19.34 15.63L19.34 15.63L19.34 15.63Q19.43 15.96 19.64 16.14L19.64 16.14L19.64 16.14Q19.85 16.32 20.17 16.32L20.17 16.32L20.17 16.32Q20.54 16.32 21.44 15.74L21.44 15.74L21.61 15.77L21.70 15.98L21.70 15.98Q20.39 17.21 19.41 17.21L19.41 17.21L19.41 17.21Q18.73 17.21 18.40 16.78L18.40 16.78L18.40 16.78Q18.18 16.50 18.13 16.09L18.13 16.09L18.13 16.09Q18.08 15.67 18.08 14.25L18.08 14.25L18.08 11.59L18.00 11.49L16.43 11.49L16.36 11.42L16.45 11.08L16.54 11.00L18.00 11.00L18.08 10.92L18.08 10.92Q18.08 9.30 18.05 8.94ZM29.81 11.27L29.81 11.27L29.81 11.27Q29.80 11.24 29.80 11.18L29.80 11.18L29.80 11.18Q29.80 11.09 29.83 11.08L29.83 11.08L30.63 10.60L30.63 10.60Q30.64 10.58 30.71 10.58L30.71 10.58L30.71 10.58Q30.94 10.58 31.12 11.09L31.12 11.09L31.12 11.09Q31.31 11.59 31.31 11.92L31.31 11.92L31.31 11.92Q31.31 12.44 31.10 12.94L31.10 12.94L31.10 12.94Q30.90 13.44 30.52 14.07L30.52 14.07L30.52 14.07Q29.74 15.36 28.31 16.91L28.31 16.91L28.31 16.91Q28.02 17.20 27.82 17.20L27.82 17.20L27.82 17.20Q27.71 17.20 27.60 17.10L27.60 17.10L27.60 17.10Q27.49 17.01 27.46 16.91L27.46 16.91L27.46 16.91Q27.19 16.16 26.19 12.19L26.19 12.19L26.19 12.19Q26.12 12.05 26.06 12.05L26.06 12.05L26.06 12.05Q25.93 12.05 25.91 12.12L25.91 12.12L25.91 12.12Q24.32 15.04 23.40 17.02L23.40 17.02L22.81 17.20L22.72 17.12L22.37 13.98L22.37 13.98Q22.31 13.43 22.24 13.00L22.24 13.00L22.24 13.00Q22.16 12.56 22.09 12.28L22.09 12.28L22.09 12.28Q22.02 12.01 21.93 11.81L21.93 11.81L21.93 11.81Q21.85 11.61 21.79 11.52L21.79 11.52L21.79 11.52Q21.73 11.43 21.65 11.38L21.65 11.38L21.65 11.38Q21.57 11.33 21.54 11.33L21.54 11.33L21.54 11.33Q21.51 11.32 21.46 11.32L21.46 11.32L21.46 11.32Q21.13 11.32 20.30 11.76L20.30 11.76L20.18 11.48L20.18 11.48Q21 10.89 21.36 10.72L21.36 10.72L21.36 10.72Q21.77 10.52 22.05 10.52L22.05 10.52L22.05 10.52Q22.32 10.52 22.52 10.64L22.52 10.64L22.52 10.64Q22.73 10.77 22.85 10.99L22.85 10.99L22.85 10.99Q22.97 11.20 23.03 11.41L23.03 11.41L23.03 11.41Q23.10 11.61 23.15 11.87L23.15 11.87L23.15 11.87Q23.24 12.37 23.31 12.94L23.31 12.94L23.31 12.94Q23.37 13.51 23.44 14.19L23.44 14.19L23.44 14.19Q23.50 14.88 23.55 15.27L23.55 15.27L23.71 15.30L23.71 15.30Q25.25 12.52 26.03 10.92L26.03 10.92L26.76 10.55L26.93 10.60L26.93 10.60Q27.61 13.92 28.29 15.74L28.29 15.74L28.29 15.74Q28.32 15.83 28.39 15.89L28.39 15.89L28.39 15.89Q28.46 15.96 28.54 15.96L28.54 15.96L28.54 15.96Q28.64 15.96 28.75 15.82L28.75 15.82L28.75 15.82Q29.52 14.83 29.80 14.38L29.80 14.38L29.80 14.38Q30.34 13.47 30.34 12.72L30.34 12.72L30.34 12.72Q30.34 12.17 29.81 11.27ZM36.80 11.05L36.80 11.05L37.54 10.62L37.61 10.69L37.61 10.69Q37.52 12.36 37.52 13.75L37.52 13.75L37.52 13.75Q37.52 13.88 37.51 14.16L37.51 14.16L37.51 14.16Q37.50 14.44 37.50 14.65L37.50 14.65L37.50 14.65Q37.50 14.86 37.50 15.14L37.50 15.14L37.50 15.14Q37.50 15.42 37.54 15.61L37.54 15.61L37.54 15.61Q37.57 15.81 37.63 15.99L37.63 15.99L37.63 15.99Q37.69 16.17 37.80 16.27L37.80 16.27L37.80 16.27Q37.91 16.37 38.07 16.37L38.07 16.37L38.07 16.37Q38.30 16.37 38.98 16.11L38.98 16.11L39.08 16.45L39.08 16.45Q39.04 16.47 38.89 16.56L38.89 16.56L38.89 16.56Q38.74 16.65 38.68 16.69L38.68 16.69L38.68 16.69Q38.62 16.72 38.48 16.80L38.48 16.80L38.48 16.80Q38.34 16.88 38.26 16.93L38.26 16.93L38.26 16.93Q38.19 16.97 38.06 17.03L38.06 17.03L38.06 17.03Q37.93 17.10 37.85 17.13L37.85 17.13L37.85 17.13Q37.76 17.16 37.66 17.20L37.66 17.20L37.66 17.20Q37.56 17.23 37.47 17.25L37.47 17.25L37.47 17.25Q37.39 17.26 37.32 17.26L37.32 17.26L37.32 17.26Q36.96 17.26 36.77 17.05L36.77 17.05L36.77 17.05Q36.59 16.83 36.52 16.43L36.52 16.43L36.31 16.38L36.31 16.38Q34.97 17.26 34.02 17.26L34.02 17.26L34.02 17.26Q33.47 17.26 33.05 17.01L33.05 17.01L33.05 17.01Q32.63 16.76 32.41 16.34L32.41 16.34L32.41 16.34Q32.18 15.93 32.07 15.47L32.07 15.47L32.07 15.47Q31.96 15.00 31.96 14.50L31.96 14.50L31.96 14.50Q31.96 13.89 32.08 13.33L32.08 13.33L32.08 13.33Q32.20 12.77 32.46 12.26L32.46 12.26L32.46 12.26Q32.72 11.76 33.10 11.38L33.10 11.38L33.10 11.38Q33.48 11.01 34.04 10.79L34.04 10.79L34.04 10.79Q34.61 10.57 35.30 10.57L35.30 10.57L35.30 10.57Q35.66 10.57 36.06 10.69L36.06 10.69L36.06 10.69Q36.47 10.82 36.80 11.05ZM36.49 15.70L36.49 15.70L36.49 12.48L36.49 12.48Q36.49 12.24 36.48 12.11L36.48 12.11L36.48 12.11Q36.48 11.98 36.42 11.81L36.42 11.81L36.42 11.81Q36.37 11.63 36.26 11.52L36.26 11.52L36.26 11.52Q35.82 11.05 35.31 11.05L35.31 11.05L35.31 11.05Q34.54 11.05 33.98 11.59L33.98 11.59L33.98 11.59Q33.69 11.87 33.47 12.49L33.47 12.49L33.47 12.49Q33.25 13.12 33.23 14.08L33.23 14.08L33.23 14.08Q33.20 15.12 33.62 15.76L33.62 15.76L33.62 15.76Q33.98 16.33 35.01 16.33L35.01 16.33L35.01 16.33Q35.68 16.33 36.49 15.70ZM43.91 11.66L43.16 12.35L42.99 12.27L42.99 12.27Q42.93 11.93 42.75 11.70L42.75 11.70L42.75 11.70Q42.57 11.46 42.25 11.46L42.25 11.46L42.25 11.46Q41.86 11.46 41.59 11.72L41.59 11.72L41.59 11.72Q41.32 11.98 41.17 12.33L41.17 12.33L41.17 12.33Q41.08 12.54 41.06 12.91L41.06 12.91L41.06 12.91Q41.04 13.28 41.06 13.94L41.06 13.94L41.06 13.94Q41.08 14.59 41.08 14.71L41.08 14.71L41.08 14.71Q41.08 15.77 41.12 16.84L41.12 16.84L40.13 17.13L39.93 17.01L39.93 17.01Q40.09 15.05 40.09 13.69L40.09 13.69L40.09 13.69Q40.09 13.62 40.09 13.50L40.09 13.50L40.09 13.50Q40.09 13.23 40.09 13.10L40.09 13.10L40.09 13.10Q40.09 12.97 40.09 12.73L40.09 12.73L40.09 12.73Q40.08 12.48 40.06 12.35L40.06 12.35L40.06 12.35Q40.04 12.21 40.02 12.02L40.02 12.02L40.02 12.02Q40.00 11.83 39.95 11.73L39.95 11.73L39.95 11.73Q39.90 11.63 39.84 11.52L39.84 11.52L39.84 11.52Q39.78 11.41 39.69 11.36L39.69 11.36L39.69 11.36Q39.60 11.32 39.49 11.32L39.49 11.32L39.49 11.32Q39.17 11.32 38.40 11.76L38.40 11.76L38.23 11.52L38.23 11.52Q38.66 11.18 38.87 11.03L38.87 11.03L38.87 11.03Q39.08 10.87 39.47 10.67L39.47 10.67L39.47 10.67Q39.85 10.47 40.12 10.47L40.12 10.47L40.12 10.47Q40.99 10.47 41.13 11.48L41.13 11.48L41.27 11.53L41.27 11.53Q42.28 10.55 42.81 10.55L42.81 10.55L42.81 10.55Q43.81 10.55 43.91 11.66L43.91 11.66ZM45.75 11.55L45.75 11.55L45.75 11.55Q45.37 11.95 45.24 12.41L45.24 12.41L45.24 12.41Q45.10 12.87 45.10 13.45L45.10 13.45L45.10 13.45Q45.10 13.54 45.13 13.70L45.13 13.70L45.19 13.76L48.02 12.64L48.02 12.64Q48.19 12.58 48.19 12.27L48.19 12.27L48.19 12.27Q48.19 11.79 47.83 11.38L47.83 11.38L47.83 11.38Q47.48 10.96 46.92 10.96L46.92 10.96L46.92 10.96Q46.22 10.96 45.75 11.55ZM49.10 12.63L49.10 12.63L45.16 14.33L45.16 14.33Q45.19 14.69 45.31 15.02L45.31 15.02L45.31 15.02Q45.42 15.35 45.62 15.65L45.62 15.65L45.62 15.65Q45.83 15.95 46.17 16.13L46.17 16.13L46.17 16.13Q46.52 16.30 46.96 16.30L46.96 16.30L46.96 16.30Q47.90 16.30 49.12 15.35L49.12 15.35L49.27 15.38L49.46 15.63L49.46 15.63Q47.72 17.26 46.27 17.26L46.27 17.26L46.27 17.26Q45.73 17.26 45.31 17.06L45.31 17.06L45.31 17.06Q44.89 16.86 44.64 16.55L44.64 16.55L44.64 16.55Q44.39 16.23 44.23 15.78L44.23 15.78L44.23 15.78Q44.06 15.33 44.00 14.88L44.00 14.88L44.00 14.88Q43.94 14.44 43.94 13.92L43.94 13.92L43.94 13.92Q43.94 12.48 44.65 11.66L44.65 11.66L44.65 11.66Q45.17 11.05 45.89 10.73L45.89 10.73L45.89 10.73Q46.61 10.40 47.41 10.40L47.41 10.40L47.41 10.40Q48.30 10.40 48.85 10.95L48.85 10.95L48.85 10.95Q49.40 11.50 49.40 12.33L49.40 12.33L49.40 12.33Q49.40 12.41 49.35 12.47L49.35 12.47L49.35 12.47Q49.30 12.53 49.26 12.55L49.26 12.55L49.26 12.55Q49.21 12.58 49.10 12.63ZM55.41 8.61L55.41 8.61L54.53 9.39L54.35 9.34L54.35 9.34Q53.95 7.78 52.64 7.78L52.64 7.78L52.64 7.78Q51.98 7.78 51.53 8.26L51.53 8.26L51.53 8.26Q51.08 8.74 51.08 9.43L51.08 9.43L51.08 9.43Q51.08 9.82 51.26 10.17L51.26 10.17L51.26 10.17Q51.43 10.51 51.76 10.78L51.76 10.78L51.76 10.78Q52.08 11.05 52.42 11.24L52.42 11.24L52.42 11.24Q52.77 11.44 53.23 11.64L53.23 11.64L53.23 11.64Q54.36 12.13 54.91 12.74L54.91 12.74L54.91 12.74Q55.45 13.34 55.45 14.16L55.45 14.16L55.45 14.16Q55.45 14.83 55.10 15.43L55.10 15.43L55.10 15.43Q54.76 16.02 54.21 16.43L54.21 16.43L54.21 16.43Q53.66 16.83 52.98 17.07L52.98 17.07L52.98 17.07Q52.30 17.30 51.63 17.30L51.63 17.30L51.63 17.30Q50.85 17.30 50.22 16.95L50.22 16.95L50.22 16.95Q49.59 16.60 49.32 15.87L49.32 15.87L50.12 14.95L50.36 14.96L50.36 14.96Q50.87 16.66 52.22 16.66L52.22 16.66L52.22 16.66Q53.05 16.66 53.63 16.06L53.63 16.06L53.63 16.06Q54.22 15.47 54.22 14.59L54.22 14.59L54.22 14.59Q54.22 14.04 53.72 13.51L53.72 13.51L53.72 13.51Q53.21 12.99 52.53 12.69L52.53 12.69L52.53 12.69Q51.85 12.41 51.40 12.14L51.40 12.14L51.40 12.14Q50.96 11.88 50.62 11.55L50.62 11.55L50.62 11.55Q50.28 11.22 50.12 10.82L50.12 10.82L50.12 10.82Q49.96 10.42 49.96 9.92L49.96 9.92L49.96 9.92Q49.96 9.28 50.21 8.77L50.21 8.77L50.21 8.77Q50.46 8.25 50.88 7.93L50.88 7.93L50.88 7.93Q51.30 7.61 51.83 7.43L51.83 7.43L51.83 7.43Q52.36 7.26 52.94 7.26L52.94 7.26L52.94 7.26Q53.36 7.26 53.68 7.31L53.68 7.31L53.68 7.31Q54.00 7.36 54.32 7.49L54.32 7.49L54.32 7.49Q54.65 7.63 54.92 7.91L54.92 7.91L54.92 7.91Q55.19 8.18 55.41 8.61ZM61.53 15.46L61.65 15.50L61.80 15.74L61.80 15.74Q61.04 16.49 60.29 16.92L60.29 16.92L60.29 16.92Q59.53 17.36 58.67 17.36L58.67 17.36L58.67 17.36Q58.20 17.36 57.82 17.24L57.82 17.24L57.82 17.24Q57.44 17.13 57.19 16.95L57.19 16.95L57.19 16.95Q56.94 16.77 56.76 16.49L56.76 16.49L56.76 16.49Q56.58 16.21 56.48 15.94L56.48 15.94L56.48 15.94Q56.38 15.67 56.33 15.31L56.33 15.31L56.33 15.31Q56.27 14.95 56.26 14.68L56.26 14.68L56.26 14.68Q56.25 14.41 56.25 14.05L56.25 14.05L56.25 14.05Q56.25 12.48 57.24 11.46L57.24 11.46L57.24 11.46Q58.24 10.44 59.79 10.44L59.79 10.44L59.79 10.44Q60.47 10.44 60.91 10.82L60.91 10.82L60.91 10.82Q61.35 11.20 61.41 11.81L61.41 11.81L60.66 12.55L60.42 12.47L60.42 12.47Q60.33 11.77 60.01 11.38L60.01 11.38L60.01 11.38Q59.69 10.99 59.23 10.99L59.23 10.99L59.23 10.99Q58.67 10.99 58.24 11.39L58.24 11.39L58.24 11.39Q57.81 11.80 57.61 12.39L57.61 12.39L57.61 12.39Q57.41 12.97 57.41 13.62L57.41 13.62L57.41 13.62Q57.41 14.01 57.45 14.38L57.45 14.38L57.45 14.38Q57.50 14.74 57.63 15.12L57.63 15.12L57.63 15.12Q57.76 15.51 57.98 15.79L57.98 15.79L57.98 15.79Q58.19 16.07 58.55 16.25L58.55 16.25L58.55 16.25Q58.91 16.43 59.38 16.43L59.38 16.43L59.38 16.43Q60.41 16.43 61.53 15.46L61.53 15.46ZM69.91 15.59L69.91 15.59L70.09 15.73L70.09 15.89L70.09 15.89Q69.51 16.50 68.99 16.86L68.99 16.86L68.99 16.86Q68.46 17.23 67.89 17.23L67.89 17.23L67.89 17.23Q67.44 17.23 67.20 16.82L67.20 16.82L67.20 16.82Q66.96 16.41 66.96 15.85L66.96 15.85L66.96 15.85Q66.96 15.44 67.00 14.51L67.00 14.51L67.00 14.51Q67.03 13.58 67.03 13.36L67.03 13.36L67.03 13.36Q67.03 13.02 67.00 12.75L67.00 12.75L67.00 12.75Q66.98 12.49 66.90 12.23L66.90 12.23L66.90 12.23Q66.83 11.97 66.70 11.81L66.70 11.81L66.70 11.81Q66.57 11.64 66.35 11.54L66.35 11.54L66.35 11.54Q66.12 11.44 65.82 11.44L65.82 11.44L65.82 11.44Q65.31 11.44 64.84 11.66L64.84 11.66L64.84 11.66Q64.37 11.89 63.83 12.27L63.83 12.27L63.83 12.27Q63.83 13.04 63.82 14.58L63.82 14.58L63.82 14.58Q63.81 16.11 63.81 16.86L63.81 16.86L62.79 17.17L62.71 17.04L62.71 17.04Q62.90 13.50 62.91 11.49L62.91 11.49L62.91 11.49Q62.91 11.26 62.91 10.82L62.91 10.82L62.91 10.82Q62.92 10.38 62.92 10.18L62.92 10.18L62.92 10.18Q62.92 9.97 62.91 9.65L62.91 9.65L62.91 9.65Q62.90 9.32 62.87 9.15L62.87 9.15L62.87 9.15Q62.84 8.97 62.78 8.78L62.78 8.78L62.78 8.78Q62.72 8.59 62.63 8.46L62.63 8.46L62.63 8.46Q62.61 8.44 62.58 8.41L62.58 8.41L62.58 8.41Q62.54 8.38 62.49 8.36L62.49 8.36L62.49 8.36Q62.43 8.33 62.38 8.31L62.38 8.31L62.38 8.31Q62.33 8.29 62.25 8.27L62.25 8.27L62.25 8.27Q62.17 8.24 62.12 8.23L62.12 8.23L62.12 8.23Q62.06 8.22 61.97 8.19L61.97 8.19L61.97 8.19Q61.87 8.17 61.82 8.16L61.82 8.16L61.82 8.16Q61.78 8.15 61.68 8.13L61.68 8.13L61.68 8.13Q61.58 8.11 61.55 8.10L61.55 8.10L61.55 7.85L61.62 7.79L63.83 7.55L63.92 7.66L63.92 7.66Q63.86 8.85 63.86 11.52L63.86 11.52L63.97 11.63L63.97 11.63Q64.50 11.31 64.86 11.12L64.86 11.12L64.86 11.12Q65.22 10.92 65.77 10.75L65.77 10.75L65.77 10.75Q66.31 10.57 66.79 10.57L66.79 10.57L66.79 10.57Q66.96 10.57 67.24 10.67L67.24 10.67L67.24 10.67Q67.51 10.78 67.70 10.96L67.70 10.96L67.70 10.96Q67.79 11.04 67.85 11.15L67.85 11.15L67.85 11.15Q67.91 11.27 67.95 11.43L67.95 11.43L67.95 11.43Q67.98 11.60 68.00 11.74L68.00 11.74L68.00 11.74Q68.02 11.89 68.03 12.13L68.03 12.13L68.03 12.13Q68.04 12.37 68.04 12.53L68.04 12.53L68.04 12.53Q68.04 12.69 68.03 12.99L68.03 12.99L68.03 12.99Q68.03 13.29 68.03 13.45L68.03 13.45L68.03 14.49L68.03 14.49Q68.03 14.55 68.02 14.76L68.02 14.76L68.02 14.76Q68.02 14.96 68.02 15.08L68.02 15.08L68.02 15.08Q68.02 15.20 68.04 15.40L68.04 15.40L68.04 15.40Q68.05 15.61 68.09 15.73L68.09 15.73L68.09 15.73Q68.13 15.85 68.20 15.97L68.20 15.97L68.20 15.97Q68.26 16.10 68.38 16.16L68.38 16.16L68.38 16.16Q68.50 16.22 68.65 16.22L68.65 16.22L68.65 16.22Q69.25 16.22 69.91 15.59ZM71.20 12.67L71.20 12.67L71.20 12.67Q71.09 13.13 71.09 13.75L71.09 13.75L71.09 13.75Q71.09 14.14 71.14 14.51L71.14 14.51L71.14 14.51Q71.19 14.89 71.32 15.30L71.32 15.30L71.32 15.30Q71.46 15.71 71.66 16.01L71.66 16.01L71.66 16.01Q71.86 16.32 72.20 16.52L72.20 16.52L72.20 16.52Q72.54 16.71 72.98 16.71L72.98 16.71L72.98 16.71Q73.42 16.71 73.75 16.54L73.75 16.54L73.75 16.54Q74.08 16.37 74.28 16.10L74.28 16.10L74.28 16.10Q74.48 15.83 74.60 15.46L74.60 15.46L74.60 15.46Q74.72 15.09 74.77 14.74L74.77 14.74L74.77 14.74Q74.81 14.39 74.81 14.01L74.81 14.01L74.81 14.01Q74.81 13.62 74.77 13.26L74.77 13.26L74.77 13.26Q74.74 12.91 74.62 12.50L74.62 12.50L74.62 12.50Q74.50 12.10 74.30 11.81L74.30 11.81L74.30 11.81Q74.11 11.52 73.76 11.32L73.76 11.32L73.76 11.32Q73.42 11.13 72.97 11.13L72.97 11.13L72.97 11.13Q72.37 11.13 71.88 11.53L71.88 11.53L71.88 11.53Q71.39 11.92 71.20 12.67ZM72.60 17.29L72.60 17.29L72.60 17.29Q71.91 17.29 71.38 17.04L71.38 17.04L71.38 17.04Q70.86 16.80 70.55 16.37L70.55 16.37L70.55 16.37Q70.25 15.94 70.09 15.44L70.09 15.44L70.09 15.44Q69.93 14.94 69.89 14.35L69.89 14.35L69.89 14.35Q69.89 13.47 70.04 12.79L70.04 12.79L70.04 12.79Q70.20 12.11 70.66 11.61L70.66 11.61L70.66 11.61Q71.13 11.09 71.82 10.84L71.82 10.84L71.82 10.84Q72.52 10.58 73.29 10.58L73.29 10.58L73.29 10.58Q74.03 10.58 74.58 10.85L74.58 10.85L74.58 10.85Q75.14 11.12 75.45 11.58L75.45 11.58L75.45 11.58Q75.76 12.04 75.91 12.59L75.91 12.59L75.91 12.59Q76.06 13.13 76.06 13.75L76.06 13.75L76.06 13.75Q76.06 15.36 75.25 16.26L75.25 16.26L75.25 16.26Q74.79 16.79 74.09 17.04L74.09 17.04L74.09 17.04Q73.40 17.29 72.60 17.29ZM78.48 12.67L78.48 12.67L78.48 12.67Q78.37 13.13 78.37 13.75L78.37 13.75L78.37 13.75Q78.37 14.14 78.42 14.51L78.42 14.51L78.42 14.51Q78.46 14.89 78.60 15.30L78.60 15.30L78.60 15.30Q78.73 15.71 78.93 16.01L78.93 16.01L78.93 16.01Q79.13 16.32 79.47 16.52L79.47 16.52L79.47 16.52Q79.82 16.71 80.25 16.71L80.25 16.71L80.25 16.71Q80.69 16.71 81.02 16.54L81.02 16.54L81.02 16.54Q81.35 16.37 81.55 16.10L81.55 16.10L81.55 16.10Q81.75 15.83 81.87 15.46L81.87 15.46L81.87 15.46Q82.00 15.09 82.04 14.74L82.04 14.74L82.04 14.74Q82.09 14.39 82.09 14.01L82.09 14.01L82.09 14.01Q82.09 13.62 82.05 13.26L82.05 13.26L82.05 13.26Q82.01 12.91 81.89 12.50L81.89 12.50L81.89 12.50Q81.77 12.10 81.58 11.81L81.58 11.81L81.58 11.81Q81.38 11.52 81.04 11.32L81.04 11.32L81.04 11.32Q80.69 11.13 80.24 11.13L80.24 11.13L80.24 11.13Q79.64 11.13 79.15 11.53L79.15 11.53L79.15 11.53Q78.66 11.92 78.48 12.67ZM79.88 17.29L79.88 17.29L79.88 17.29Q79.18 17.29 78.66 17.04L78.66 17.04L78.66 17.04Q78.13 16.80 77.83 16.37L77.83 16.37L77.83 16.37Q77.52 15.94 77.36 15.44L77.36 15.44L77.36 15.44Q77.21 14.94 77.16 14.35L77.16 14.35L77.16 14.35Q77.16 13.47 77.32 12.79L77.32 12.79L77.32 12.79Q77.47 12.11 77.93 11.61L77.93 11.61L77.93 11.61Q78.40 11.09 79.10 10.84L79.10 10.84L79.10 10.84Q79.79 10.58 80.56 10.58L80.56 10.58L80.56 10.58Q81.30 10.58 81.86 10.85L81.86 10.85L81.86 10.85Q82.41 11.12 82.73 11.58L82.73 11.58L82.73 11.58Q83.04 12.04 83.19 12.59L83.19 12.59L83.19 12.59Q83.34 13.13 83.34 13.75L83.34 13.75L83.34 13.75Q83.34 15.36 82.52 16.26L82.52 16.26L82.52 16.26Q82.06 16.79 81.36 17.04L81.36 17.04L81.36 17.04Q80.67 17.29 79.88 17.29ZM87.92 15.52L87.92 15.52L88.07 15.52L88.23 15.69L88.23 15.69Q87.23 17.25 86.10 17.25L86.10 17.25L86.10 17.25Q85.72 17.25 85.48 17.10L85.48 17.10L85.48 17.10Q85.24 16.95 85.10 16.50L85.10 16.50L85.10 16.50Q84.95 16.05 84.95 15.27L84.95 15.27L85.05 9.98L85.05 9.98Q85.05 8.95 84.98 8.58L84.98 8.58L84.98 8.58Q84.96 8.49 84.91 8.42L84.91 8.42L84.91 8.42Q84.85 8.35 84.77 8.31L84.77 8.31L84.77 8.31Q84.68 8.27 84.60 8.24L84.60 8.24L84.60 8.24Q84.53 8.21 84.40 8.20L84.40 8.20L84.40 8.20Q84.27 8.18 84.19 8.18L84.19 8.18L84.19 8.18Q84.11 8.17 83.96 8.16L83.96 8.16L83.96 8.16Q83.82 8.16 83.76 8.16L83.76 8.16L83.76 7.83L83.85 7.77L86.15 7.49L86.24 7.58L86.24 7.58Q86.23 8.13 86.14 10.23L86.14 10.23L86.14 10.23Q86.04 12.33 86.04 13.47L86.04 13.47L86.04 13.47Q86.04 13.65 86.04 13.92L86.04 13.92L86.04 13.92Q86.04 14.19 86.03 14.37L86.03 14.37L86.03 14.37Q86.03 14.54 86.03 14.77L86.03 14.77L86.03 14.77Q86.03 15.00 86.05 15.16L86.05 15.16L86.05 15.16Q86.06 15.31 86.09 15.48L86.09 15.48L86.09 15.48Q86.11 15.65 86.16 15.76L86.16 15.76L86.16 15.76Q86.21 15.87 86.29 15.97L86.29 15.97L86.29 15.97Q86.37 16.07 86.47 16.12L86.47 16.12L86.47 16.12Q86.58 16.17 86.71 16.18L86.71 16.18L86.71 16.18Q86.93 16.18 87.17 16.06L87.17 16.06L87.17 16.06Q87.40 15.95 87.54 15.84L87.54 15.84L87.54 15.84Q87.68 15.74 87.92 15.52Z"></path></g><!----><!----></svg>